<svg width="248" height="50" viewBox="0 0 248 50" fill="none" xmlns="http://www.w3.org/2000/svg">
<rect x="128.5" y="0.5" width="119" height="49" rx="11.5" fill="white" stroke="#BFEAFF"/>
<path d="M157.596 8.15974C158.025 8.15721 158.45 8.23643 158.849 8.39316C159.236 8.55316 159.594 8.77745 159.906 9.05656C160.226 9.34599 160.496 9.68638 160.705 10.0639C160.932 10.4524 161.094 10.8758 161.184 11.317L165.312 30.4327H166.123C166.794 27.3205 167.482 24.1386 168.187 20.8872C168.891 17.6357 169.591 14.4456 170.288 11.317C170.424 10.7396 170.643 10.1851 170.939 9.67082C171.219 9.2251 171.582 8.83725 172.008 8.5283C172.528 8.16313 173.155 7.98158 173.789 8.01232C174.296 8.00211 174.799 8.10273 175.264 8.30717C175.663 8.49277 176.023 8.75583 176.32 9.08113C176.591 9.37916 176.803 9.72495 176.947 10.1008C177.073 10.4432 177.14 10.8047 177.143 11.1696C177.143 11.3662 177.135 11.5504 177.119 11.7224C177.107 11.8757 177.082 12.0278 177.045 12.177C177.012 12.3408 176.979 12.4841 176.947 12.607L170.386 38.6761C170.154 39.2081 169.83 39.6948 169.428 40.1134C169.051 40.5138 168.611 40.8499 168.125 41.1085C167.506 41.4235 166.817 41.5757 166.123 41.5508H165.312C164.629 41.579 163.951 41.4264 163.346 41.1085C162.88 40.8541 162.463 40.517 162.117 40.1134C161.769 39.6871 161.502 39.1997 161.331 38.6761L157.977 24.6341H157.166C156.65 26.9028 156.101 29.2452 155.52 31.6612C154.938 34.0773 154.385 36.4156 153.861 38.6761C153.659 39.1983 153.373 39.6839 153.014 40.1134C152.661 40.5094 152.246 40.8455 151.785 41.1085C151.185 41.4276 150.51 41.5803 149.831 41.5508H149.021C148.319 41.5735 147.622 41.4216 146.993 41.1085C146.493 40.8499 146.037 40.5141 145.642 40.1134C145.227 39.7001 144.894 39.2125 144.659 38.6761L138.184 12.607C138.148 12.4653 138.119 12.3218 138.098 12.177C138.061 12.0278 138.036 11.8757 138.025 11.7224C138.008 11.5504 138 11.3662 138 11.1696C138.004 10.8047 138.07 10.4432 138.197 10.1008C138.34 9.72495 138.553 9.37916 138.823 9.08113C139.121 8.75583 139.48 8.49277 139.88 8.30717C140.344 8.10273 140.847 8.00211 141.354 8.01232C141.988 7.984 142.615 8.16533 143.136 8.5283C143.562 8.83725 143.925 9.2251 144.204 9.67082C144.5 10.184 144.715 10.7391 144.843 11.317L149.021 30.4327H149.831C150.135 28.9667 150.462 27.4229 150.814 25.8012C151.167 24.1796 151.523 22.5416 151.883 20.8872C152.244 19.2328 152.604 17.5947 152.964 15.9731C153.325 14.3515 153.669 12.7994 153.996 11.317C154.2 10.4525 154.653 9.66663 155.299 9.05656C155.917 8.46689 156.742 8.14465 157.596 8.15974Z" fill="#0079B2"/>
<path d="M200.806 26.1698V36.1331C200.807 36.7939 200.77 37.4543 200.695 38.111C200.641 38.7165 200.479 39.3073 200.216 39.8555C199.976 40.3569 199.602 40.7821 199.135 41.084C198.538 41.4241 197.856 41.5861 197.169 41.5508C196.479 41.587 195.793 41.425 195.191 41.084C194.71 40.7842 194.32 40.3596 194.061 39.8555C193.789 39.3081 193.615 38.7179 193.545 38.111C193.471 37.4543 193.434 36.7939 193.434 36.1331V26.6981C193.434 26.2804 193.418 25.8709 193.385 25.4695C193.36 25.092 193.269 24.7218 193.115 24.3762C192.98 24.0626 192.764 23.791 192.488 23.5899C192.138 23.3762 191.731 23.2734 191.321 23.2951C191.031 23.2846 190.741 23.3362 190.472 23.4464C190.203 23.5565 189.961 23.7227 189.761 23.9339C189.314 24.4337 188.99 25.0311 188.815 25.6784C188.564 26.5398 188.403 27.425 188.336 28.3197C188.246 29.3271 188.2 30.4164 188.2 31.5875V36.1331C188.201 36.7936 188.168 37.4537 188.102 38.111C188.04 38.7165 187.874 39.3067 187.611 39.8555C187.357 40.3631 186.965 40.7889 186.48 41.084C185.866 41.4257 185.168 41.5875 184.466 41.5508C183.779 41.5861 183.097 41.4241 182.5 41.084C182.033 40.7821 181.659 40.3569 181.419 39.8555C181.156 39.3073 180.993 38.7165 180.939 38.111C180.865 37.4543 180.828 36.7939 180.829 36.1331V13.4301C180.828 12.7692 180.865 12.1089 180.939 11.4522C180.993 10.8467 181.156 10.2558 181.419 9.70768C181.659 9.20626 182.033 8.78107 182.5 8.47917C183.097 8.13904 183.779 7.97704 184.466 8.01233C185.168 7.97565 185.866 8.13744 186.48 8.47917C186.965 8.77423 187.357 9.20003 187.611 9.70768C187.874 10.2565 188.04 10.8467 188.102 11.4522C188.168 12.1094 188.201 12.7695 188.2 13.4301V21.6243C188.359 21.1326 188.569 20.659 188.827 20.2115C189.103 19.7209 189.461 19.2807 189.884 18.9093C190.336 18.5128 190.851 18.1932 191.407 17.9633C192.051 17.7059 192.741 17.5805 193.434 17.5948C194.333 17.5984 195.225 17.7478 196.076 18.037C196.966 18.335 197.776 18.8306 198.447 19.4867C199.197 20.2408 199.779 21.1452 200.155 22.1403C200.623 23.4307 200.844 24.7977 200.806 26.1698Z" fill="#80D6FF"/>
<path d="M204.488 36.1822V22.9633C204.487 22.3066 204.524 21.6503 204.599 20.9977C204.661 20.4001 204.827 19.8179 205.09 19.2778C205.342 18.7801 205.725 18.3598 206.196 18.0616C206.784 17.7213 207.459 17.5591 208.137 17.5947C208.816 17.5612 209.489 17.7232 210.078 18.0616C210.544 18.3627 210.922 18.7825 211.172 19.2778C211.443 19.8151 211.609 20.3986 211.663 20.9977C211.738 21.6503 211.775 22.3066 211.774 22.9633V36.1822C211.775 36.843 211.738 37.5034 211.663 38.1601C211.612 38.7596 211.445 39.3436 211.172 39.88C210.926 40.3784 210.548 40.7993 210.078 41.0962C209.487 41.4263 208.814 41.5838 208.137 41.5508C207.46 41.5859 206.787 41.4283 206.196 41.0962C205.721 40.8022 205.338 40.3808 205.09 39.88C204.825 39.3407 204.658 38.7582 204.599 38.1601C204.525 37.5034 204.488 36.843 204.488 36.1822ZM211.823 11.6487C211.864 12.1489 211.8 12.652 211.635 13.1259C211.47 13.5999 211.207 14.034 210.865 14.4006C210.122 15.0355 209.162 15.357 208.186 15.2974C207.207 15.3583 206.243 15.0368 205.496 14.4006C205.153 14.034 204.891 13.5999 204.726 13.1259C204.561 12.652 204.497 12.1489 204.537 11.6487C204.491 11.1444 204.552 10.6359 204.717 10.1571C204.882 9.67838 205.148 9.24035 205.496 8.87226C206.253 8.25849 207.213 7.95157 208.186 8.0123C209.177 7.93277 210.159 8.24112 210.926 8.87226C211.256 9.25034 211.505 9.69133 211.659 10.1686C211.813 10.6458 211.869 11.1493 211.823 11.6487Z" fill="#80D6FF"/>
<path d="M219.964 17.5947H229.449C229.939 17.5979 230.427 17.639 230.911 17.7175C231.414 17.7904 231.903 17.9395 232.361 18.1598C232.798 18.3684 233.177 18.6805 233.466 19.0689C233.775 19.5062 233.93 20.033 233.909 20.5677C233.908 20.8435 233.862 21.1173 233.773 21.3785C233.687 21.6603 233.58 21.9354 233.454 22.2016C233.323 22.4883 233.184 22.7667 233.036 23.037C232.889 23.3073 232.75 23.5694 232.619 23.8232L224.276 35.4696H229.547C230.097 35.4692 230.647 35.4979 231.193 35.5556C231.689 35.5945 232.173 35.728 232.619 35.9487C233.03 36.1554 233.378 36.4695 233.626 36.8578C233.903 37.3517 234.035 37.9138 234.007 38.4794C234.033 39.0449 233.901 39.6064 233.626 40.1011C233.379 40.4964 233.031 40.8187 232.619 41.0348C232.172 41.2564 231.689 41.3977 231.193 41.4525C230.647 41.5183 230.097 41.5511 229.547 41.5507H220.111C219.606 41.5493 219.101 41.5165 218.6 41.4525C218.095 41.3923 217.602 41.2556 217.138 41.047C216.7 40.852 216.319 40.5474 216.032 40.1625C215.726 39.7109 215.575 39.1719 215.602 38.6269C215.608 38.0292 215.751 37.4407 216.02 36.9069C216.286 36.3556 216.594 35.8258 216.942 35.3222L225.235 23.6267H219.964C219.407 23.6267 218.862 23.6021 218.33 23.553C217.835 23.5038 217.352 23.3665 216.905 23.1476C216.492 22.9476 216.144 22.6372 215.897 22.2507C215.611 21.7737 215.474 21.2217 215.504 20.666C215.474 20.0948 215.611 19.5272 215.897 19.032C216.143 18.6386 216.491 18.32 216.905 18.1107C217.353 17.8912 217.835 17.75 218.33 17.693C218.872 17.6268 219.418 17.594 219.964 17.5947Z" fill="#80D6FF"/>
<rect x="0.5" y="0.5" width="119" height="49" rx="11.5" fill="white" stroke="#BFEAFF"/>
<path d="M26.5962 8.15993C27.025 8.1574 27.4503 8.23662 27.8494 8.39334C28.2365 8.55334 28.5937 8.77764 28.906 9.05674C29.226 9.34617 29.4958 9.68657 29.7046 10.0641C29.9322 10.4526 30.0941 10.876 30.1837 11.3172L34.3119 30.4329H35.1227C35.7944 27.3207 36.4824 24.1388 37.1868 20.8873C37.8912 17.6359 38.5915 14.4458 39.2877 11.3172C39.4238 10.7398 39.6431 10.1853 39.9389 9.671C40.2188 9.22528 40.5816 8.83743 41.0077 8.52848C41.5277 8.16331 42.1546 7.98176 42.7892 8.0125C43.2963 8.00229 43.7994 8.10291 44.2635 8.30735C44.6635 8.49295 45.0226 8.75601 45.3201 9.08131C45.5905 9.37934 45.803 9.72513 45.9467 10.101C46.073 10.4433 46.1395 10.8049 46.1433 11.1698C46.1433 11.3664 46.1351 11.5506 46.1187 11.7226C46.1068 11.8759 46.0822 12.028 46.045 12.1772C46.0123 12.341 45.9795 12.4843 45.9467 12.6072L39.386 38.6763C39.1541 39.2083 38.8297 39.695 38.4277 40.1136C38.0506 40.514 37.6107 40.8501 37.1254 41.1087C36.5062 41.4237 35.817 41.5759 35.1227 41.551H34.3119C33.6291 41.5792 32.951 41.4266 32.3461 41.1087C31.8795 40.8543 31.4632 40.5171 31.1175 40.1136C30.7687 39.6873 30.5021 39.1999 30.3312 38.6763L26.9771 24.6343H26.1662C25.6502 26.903 25.1014 29.2453 24.5199 31.6614C23.9383 34.0775 23.3855 36.4158 22.8613 38.6763C22.6592 39.1985 22.3728 39.684 22.0135 40.1136C21.6605 40.5096 21.2456 40.8456 20.7849 41.1087C20.1849 41.4278 19.5104 41.5805 18.8315 41.551H18.0206C17.3186 41.5737 16.622 41.4217 15.9934 41.1087C15.4934 40.8501 15.0373 40.5143 14.6419 40.1136C14.2272 39.7003 13.8938 39.2127 13.659 38.6763L7.18429 12.6072C7.14773 12.4655 7.11902 12.322 7.09829 12.1772C7.06115 12.028 7.03649 11.8759 7.02457 11.7226C7.00819 11.5506 7 11.3664 7 11.1698C7.00377 10.8049 7.07026 10.4433 7.19658 10.101C7.3403 9.72513 7.55278 9.37934 7.82316 9.08131C8.12073 8.75601 8.47986 8.49295 8.87976 8.30735C9.34388 8.10291 9.84704 8.00229 10.3541 8.0125C10.9885 7.98418 11.6145 8.16551 12.1356 8.52848C12.5617 8.83743 12.9245 9.22528 13.2044 9.671C13.4996 10.1842 13.715 10.7393 13.8433 11.3172L18.0206 30.4329H18.8315C19.1345 28.9669 19.4621 27.4231 19.8143 25.8014C20.1665 24.1798 20.5228 22.5417 20.8832 20.8873C21.2436 19.2329 21.604 17.5949 21.9644 15.9733C22.3248 14.3516 22.6688 12.7996 22.9964 11.3172C23.2003 10.4527 23.6531 9.66681 24.2987 9.05674C24.9167 8.46708 25.7422 8.14483 26.5962 8.15993Z" fill="#0079B2"/>
<path d="M49.8278 32.5458V26.5998C49.7952 25.3283 49.9993 24.0619 50.4299 22.8651C50.7828 21.921 51.3077 21.0504 51.9779 20.2975C52.5759 19.6425 53.2877 19.1014 54.0788 18.7004C54.808 18.3338 55.574 18.0456 56.364 17.8405C57.0519 17.6553 57.755 17.5319 58.4649 17.4719C59.112 17.4228 59.6198 17.3982 59.9884 17.3982C60.357 17.3982 60.8607 17.4228 61.4996 17.4719C62.1895 17.5302 62.8724 17.6536 63.5391 17.8405C64.3061 18.0436 65.0478 18.332 65.7505 18.7004C66.5165 19.1016 67.2 19.6434 67.7655 20.2975C68.4059 21.0588 68.9051 21.9283 69.2398 22.8651C69.6448 24.0674 69.8361 25.3314 69.8049 26.5998V32.5458C69.8361 33.8141 69.6448 35.0781 69.2398 36.2805C68.9051 37.2173 68.4059 38.0868 67.7655 38.8481C67.2044 39.5067 66.5199 40.0493 65.7505 40.4452C65.0466 40.8138 64.3052 41.1062 63.5391 41.3174C62.8712 41.4966 62.1887 41.6158 61.4996 41.6737C60.8607 41.7228 60.357 41.7474 59.9884 41.7474C59.6198 41.7474 59.112 41.7228 58.4649 41.6737C57.7559 41.6141 57.0531 41.495 56.364 41.3174C55.5749 41.1042 54.8093 40.8119 54.0788 40.4452C53.2842 40.0498 52.5714 39.5079 51.9779 38.8481C51.3077 38.0952 50.7828 37.2246 50.4299 36.2805C49.9993 35.0837 49.7952 33.8172 49.8278 32.5458ZM57.2118 25.5433V34.2166C57.218 34.6474 57.3321 35.0697 57.5435 35.4451C57.7421 35.7924 58.0253 36.084 58.3666 36.2928C58.8611 36.5675 59.4237 36.6954 59.9884 36.6613C60.5295 36.6945 61.0683 36.5663 61.5364 36.2928C61.8672 36.0788 62.1412 35.788 62.335 35.4451C62.5314 35.0637 62.6445 34.645 62.6668 34.2166V25.5433C62.6391 25.0882 62.5266 24.6424 62.335 24.2287C62.1347 23.8771 61.8626 23.5715 61.5364 23.3319C61.0807 23.0257 60.5364 22.8788 59.9884 22.9142C59.4172 22.8778 58.8492 23.0241 58.3666 23.3319C58.0295 23.5666 57.7484 23.8728 57.5435 24.2287C57.3369 24.637 57.2236 25.0859 57.2118 25.5433Z" fill="#80D6FF"/>
<path d="M88.7746 21.1942C88.8185 21.6879 88.7593 22.1853 88.6006 22.6548C88.442 23.1243 88.1874 23.5557 87.8531 23.9215C87.1244 24.5351 86.1868 24.8432 85.2362 24.7815C85.0724 24.7815 84.843 24.7938 84.5482 24.8184C84.2265 24.8484 83.9092 24.9144 83.6022 25.0149C83.2445 25.1229 82.9018 25.2756 82.5824 25.4695C82.221 25.6809 81.9006 25.9555 81.6364 26.2803C81.3268 26.667 81.0934 27.1089 80.9484 27.5825C80.7564 28.1944 80.6651 28.8333 80.6781 29.4744V36.3296C80.6788 36.9697 80.646 37.6094 80.5798 38.246C80.5193 38.8244 80.3527 39.3866 80.0883 39.9045C79.8303 40.3916 79.449 40.8025 78.9826 41.0962C78.3908 41.4263 77.7183 41.5838 77.0414 41.5508C76.3799 41.5867 75.7223 41.4287 75.1494 41.0962C74.6915 40.8033 74.3221 40.3914 74.0805 39.9045C73.8239 39.3844 73.6617 38.8229 73.6013 38.246C73.5268 37.6099 73.4899 36.97 73.4907 36.3296V22.9142C73.4897 22.2615 73.5266 21.6092 73.6013 20.9608C73.6618 20.3762 73.824 19.8066 74.0805 19.2778C74.3175 18.7878 74.688 18.3748 75.1494 18.0861C75.7252 17.7619 76.3815 17.6085 77.0414 17.6438C77.7117 17.6012 78.376 17.7922 78.9212 18.1844C79.3664 18.5489 79.7023 19.0293 79.8918 19.5726C80.105 20.1817 80.2251 20.8196 80.2481 21.4645C80.2808 22.1607 80.2972 22.8364 80.2972 23.4916H80.6781C80.8882 22.6507 81.1889 21.8351 81.575 21.0591C81.8942 20.3921 82.3035 19.7721 82.7913 19.2163C83.197 18.7447 83.6838 18.3494 84.2287 18.0492C84.6991 17.7888 85.2269 17.6495 85.7645 17.6438C86.2795 17.6291 86.7936 17.6954 87.288 17.8404C87.6489 17.9628 87.9682 18.1842 88.2094 18.4792C88.4475 18.806 88.6034 19.1852 88.664 19.5849C88.7442 20.1175 88.7812 20.6557 88.7746 21.1942Z" fill="#80D6FF"/>
<path d="M112.298 13.4793V36.1331C112.298 36.8047 112.277 37.464 112.236 38.111C112.198 38.7135 112.052 39.3043 111.806 39.8555C111.566 40.3569 111.192 40.7821 110.725 41.084C110.111 41.4278 109.412 41.5897 108.71 41.5508C107.995 41.5877 107.283 41.4351 106.646 41.1086C106.192 40.8513 105.815 40.4782 105.553 40.0275C105.311 39.6224 105.16 39.1697 105.11 38.7007C105.058 38.3096 105.03 37.9158 105.024 37.5213C104.867 38.0114 104.661 38.4847 104.41 38.9341C104.144 39.4216 103.8 39.8617 103.39 40.2363C102.949 40.6361 102.442 40.9562 101.891 41.1823C101.239 41.4412 100.541 41.5665 99.8396 41.5508C98.9459 41.548 98.0584 41.4029 97.2104 41.1209C96.3216 40.8268 95.511 40.3354 94.8391 39.6835C94.0875 38.9401 93.505 38.0434 93.1314 37.0545C92.6544 35.7832 92.4291 34.4313 92.4679 33.0741V26.1207C92.4278 24.7553 92.6531 23.3952 93.1314 22.1157C93.503 21.1294 94.0859 20.2363 94.8391 19.499C95.5137 18.8535 96.3238 18.3666 97.2104 18.0739C98.0584 17.7919 98.9459 17.6467 99.8396 17.6439C100.54 17.6286 101.237 17.7496 101.891 18.0002C102.443 18.219 102.951 18.5352 103.39 18.9339C103.8 19.3085 104.144 19.7486 104.41 20.2361C104.664 20.6926 104.87 21.1743 105.024 21.6735V13.4793C105.024 12.7913 105.057 12.1156 105.123 11.4522C105.181 10.8436 105.343 10.2495 105.602 9.69543C105.854 9.19773 106.236 8.77748 106.707 8.4792C107.318 8.13835 108.012 7.97654 108.71 8.01236C109.381 7.98067 110.046 8.14274 110.627 8.4792C111.093 8.78032 111.47 9.20012 111.72 9.69543C111.979 10.2495 112.141 10.8436 112.199 11.4522C112.265 12.1156 112.298 12.7913 112.298 13.4793ZM99.8396 26.6489V32.4475C99.8396 32.8816 99.8559 33.3034 99.8887 33.7129C99.9146 34.1022 100.006 34.4843 100.159 34.8431C100.288 35.1666 100.511 35.4445 100.798 35.6417C101.14 35.8646 101.545 35.9722 101.953 35.9488C102.492 35.9723 103.025 35.8262 103.476 35.5311C103.904 35.1965 104.225 34.7438 104.398 34.2289C104.647 33.5189 104.804 32.7798 104.865 32.0298C104.955 31.1453 105.008 30.0888 105.024 28.8603C105.018 28.2846 104.973 27.7099 104.889 27.1404C104.804 26.5143 104.648 25.9001 104.422 25.3099C104.218 24.7622 103.899 24.264 103.489 23.8479C103.287 23.6482 103.047 23.4917 102.783 23.3882C102.519 23.2847 102.236 23.2363 101.953 23.246C101.545 23.2226 101.14 23.3302 100.798 23.5531C100.515 23.7447 100.294 24.0133 100.159 24.3271C100.005 24.6727 99.9135 25.0429 99.8887 25.4204C99.8559 25.8217 99.8396 26.2313 99.8396 26.6489Z" fill="#80D6FF"/>
</svg>
