<svg width="140" height="30" viewBox="0 0 140 30" fill="none" xmlns="http://www.w3.org/2000/svg">
<mask id="path-1-inside-1_34_1787" fill="white">
<path d="M42.4819 6.08411C42.7074 6.08278 42.931 6.12444 43.1409 6.20686C43.3445 6.291 43.5323 6.40896 43.6966 6.55574C43.8648 6.70794 44.0067 6.88695 44.1165 7.08551C44.2362 7.28981 44.3214 7.51246 44.3685 7.74449L46.5395 17.7972H46.9659C47.3191 16.1605 47.6809 14.4872 48.0513 12.7773C48.4218 11.0674 48.7901 9.3898 49.1562 7.74449C49.2277 7.44084 49.3431 7.14921 49.4986 6.87877C49.6458 6.64437 49.8367 6.4404 50.0607 6.27793C50.3342 6.08589 50.6638 5.99042 50.9976 6.00658C51.2643 6.00121 51.5289 6.05413 51.7729 6.16164C51.9832 6.25924 52.1721 6.39759 52.3286 6.56866C52.4708 6.72539 52.5825 6.90723 52.6581 7.10489C52.7245 7.28494 52.7595 7.47507 52.7615 7.66696C52.7615 7.77033 52.7572 7.86724 52.7486 7.95769C52.7423 8.03831 52.7293 8.11827 52.7098 8.19673C52.6926 8.28288 52.6753 8.35825 52.6581 8.42286L49.2079 22.1323C49.0859 22.4121 48.9153 22.668 48.7039 22.8882C48.5056 23.0987 48.2743 23.2755 48.019 23.4115C47.6934 23.5771 47.331 23.6572 46.9659 23.6441H46.5395C46.1804 23.6589 45.8238 23.5787 45.5057 23.4115C45.2603 23.2777 45.0414 23.1004 44.8596 22.8882C44.6762 22.664 44.5359 22.4077 44.4461 22.1323L42.6822 14.7478H42.2557C41.9844 15.9409 41.6958 17.1727 41.39 18.4433C41.0841 19.7139 40.7934 20.9435 40.5177 22.1323C40.4114 22.4069 40.2608 22.6623 40.0719 22.8882C39.8863 23.0964 39.668 23.2732 39.4258 23.4115C39.1102 23.5793 38.7555 23.6596 38.3985 23.6441H37.972C37.6029 23.656 37.2366 23.5761 36.906 23.4115C36.643 23.2755 36.4032 23.0989 36.1952 22.8882C35.9771 22.6708 35.8018 22.4144 35.6784 22.1323L32.2734 8.42286C32.2541 8.34837 32.239 8.27288 32.2281 8.19673C32.2086 8.11827 32.1956 8.03831 32.1894 7.95769C32.1808 7.86724 32.1765 7.77033 32.1765 7.66696C32.1784 7.47507 32.2134 7.28494 32.2798 7.10489C32.3554 6.90723 32.4672 6.72539 32.6093 6.56866C32.7658 6.39759 32.9547 6.25924 33.165 6.16164C33.4091 6.05413 33.6737 6.00121 33.9403 6.00658C34.2739 5.99169 34.6032 6.08705 34.8772 6.27793C35.1013 6.4404 35.2921 6.64437 35.4393 6.87877C35.5945 7.14865 35.7078 7.44056 35.7753 7.74449L37.972 17.7972H38.3985C38.5579 17.0263 38.7301 16.2144 38.9154 15.3616C39.1006 14.5088 39.288 13.6473 39.4775 12.7773C39.667 11.9073 39.8565 11.0459 40.0461 10.1931C40.2356 9.34027 40.4165 8.52407 40.5888 7.74449C40.696 7.28984 40.9341 6.87656 41.2737 6.55574C41.5986 6.24564 42.0328 6.07617 42.4819 6.08411Z"/>
</mask>
<path d="M42.4819 6.08411C42.7074 6.08278 42.931 6.12444 43.1409 6.20686C43.3445 6.291 43.5323 6.40896 43.6966 6.55574C43.8648 6.70794 44.0067 6.88695 44.1165 7.08551C44.2362 7.28981 44.3214 7.51246 44.3685 7.74449L46.5395 17.7972H46.9659C47.3191 16.1605 47.6809 14.4872 48.0513 12.7773C48.4218 11.0674 48.7901 9.3898 49.1562 7.74449C49.2277 7.44084 49.3431 7.14921 49.4986 6.87877C49.6458 6.64437 49.8367 6.4404 50.0607 6.27793C50.3342 6.08589 50.6638 5.99042 50.9976 6.00658C51.2643 6.00121 51.5289 6.05413 51.7729 6.16164C51.9832 6.25924 52.1721 6.39759 52.3286 6.56866C52.4708 6.72539 52.5825 6.90723 52.6581 7.10489C52.7245 7.28494 52.7595 7.47507 52.7615 7.66696C52.7615 7.77033 52.7572 7.86724 52.7486 7.95769C52.7423 8.03831 52.7293 8.11827 52.7098 8.19673C52.6926 8.28288 52.6753 8.35825 52.6581 8.42286L49.2079 22.1323C49.0859 22.4121 48.9153 22.668 48.7039 22.8882C48.5056 23.0987 48.2743 23.2755 48.019 23.4115C47.6934 23.5771 47.331 23.6572 46.9659 23.6441H46.5395C46.1804 23.6589 45.8238 23.5787 45.5057 23.4115C45.2603 23.2777 45.0414 23.1004 44.8596 22.8882C44.6762 22.664 44.5359 22.4077 44.4461 22.1323L42.6822 14.7478H42.2557C41.9844 15.9409 41.6958 17.1727 41.39 18.4433C41.0841 19.7139 40.7934 20.9435 40.5177 22.1323C40.4114 22.4069 40.2608 22.6623 40.0719 22.8882C39.8863 23.0964 39.668 23.2732 39.4258 23.4115C39.1102 23.5793 38.7555 23.6596 38.3985 23.6441H37.972C37.6029 23.656 37.2366 23.5761 36.906 23.4115C36.643 23.2755 36.4032 23.0989 36.1952 22.8882C35.9771 22.6708 35.8018 22.4144 35.6784 22.1323L32.2734 8.42286C32.2541 8.34837 32.239 8.27288 32.2281 8.19673C32.2086 8.11827 32.1956 8.03831 32.1894 7.95769C32.1808 7.86724 32.1765 7.77033 32.1765 7.66696C32.1784 7.47507 32.2134 7.28494 32.2798 7.10489C32.3554 6.90723 32.4672 6.72539 32.6093 6.56866C32.7658 6.39759 32.9547 6.25924 33.165 6.16164C33.4091 6.05413 33.6737 6.00121 33.9403 6.00658C34.2739 5.99169 34.6032 6.08705 34.8772 6.27793C35.1013 6.4404 35.2921 6.64437 35.4393 6.87877C35.5945 7.14865 35.7078 7.44056 35.7753 7.74449L37.972 17.7972H38.3985C38.5579 17.0263 38.7301 16.2144 38.9154 15.3616C39.1006 14.5088 39.288 13.6473 39.4775 12.7773C39.667 11.9073 39.8565 11.0459 40.0461 10.1931C40.2356 9.34027 40.4165 8.52407 40.5888 7.74449C40.696 7.28984 40.9341 6.87656 41.2737 6.55574C41.5986 6.24564 42.0328 6.07617 42.4819 6.08411Z" fill="white"/>
<path d="M42.4819 6.08411L42.4784 6.28413L42.4831 6.28411L42.4819 6.08411ZM43.1409 6.20686L43.2173 6.022L43.214 6.0207L43.1409 6.20686ZM43.6966 6.55574L43.8307 6.40741L43.8298 6.40661L43.6966 6.55574ZM44.1165 7.08551L43.9415 7.18232L43.944 7.1866L44.1165 7.08551ZM44.3685 7.74449L44.1725 7.78434L44.173 7.78671L44.3685 7.74449ZM46.5395 17.7972L46.344 17.8394L46.378 17.9972H46.5395V17.7972ZM46.9659 17.7972V17.9972H47.1273L47.1614 17.8394L46.9659 17.7972ZM49.1562 7.74449L48.9615 7.69862L48.961 7.70105L49.1562 7.74449ZM49.4986 6.87877L49.3291 6.77232L49.3253 6.77906L49.4986 6.87877ZM50.0607 6.27793L49.9458 6.11424L49.9433 6.11601L50.0607 6.27793ZM50.9976 6.00658L50.9879 6.20682L51.0016 6.20654L50.9976 6.00658ZM51.7729 6.16164L51.8571 5.98019L51.8536 5.97861L51.7729 6.16164ZM52.3286 6.56866L52.4767 6.43427L52.4762 6.43367L52.3286 6.56866ZM52.6581 7.10489L52.8457 7.03566L52.8449 7.03346L52.6581 7.10489ZM52.7615 7.66696L52.9615 7.66696L52.9615 7.6649L52.7615 7.66696ZM52.7486 7.95769L52.5494 7.93873L52.5492 7.94219L52.7486 7.95769ZM52.7098 8.19673L52.5155 8.14838L52.5137 8.15751L52.7098 8.19673ZM52.6581 8.42286L52.4648 8.37132L52.4641 8.37405L52.6581 8.42286ZM49.2079 22.1323L49.3912 22.2122L49.3978 22.1971L49.4018 22.1811L49.2079 22.1323ZM48.7039 22.8882L48.5596 22.7497L48.5583 22.7511L48.7039 22.8882ZM48.019 23.4115L48.1097 23.5898L48.1131 23.588L48.019 23.4115ZM46.9659 23.6441L46.973 23.4441H46.9659V23.6441ZM46.5395 23.6441V23.4439L46.5312 23.4443L46.5395 23.6441ZM45.5057 23.4115L45.4099 23.5871L45.4126 23.5885L45.5057 23.4115ZM44.8596 22.8882L44.7047 23.0149L44.7077 23.0183L44.8596 22.8882ZM44.4461 22.1323L44.2515 22.1788L44.2534 22.1867L44.2559 22.1944L44.4461 22.1323ZM42.6822 14.7478L42.8767 14.7013L42.84 14.5478H42.6822V14.7478ZM42.2557 14.7478V14.5478H42.0961L42.0607 14.7035L42.2557 14.7478ZM40.5177 22.1323L40.7042 22.2045L40.7093 22.1913L40.7125 22.1775L40.5177 22.1323ZM40.0719 22.8882L40.2213 23.0214L40.2253 23.0165L40.0719 22.8882ZM39.4258 23.4115L39.5197 23.5882L39.525 23.5852L39.4258 23.4115ZM38.3985 23.6441L38.4072 23.4441H38.3985V23.6441ZM37.972 23.6441V23.444L37.9656 23.4442L37.972 23.6441ZM36.906 23.4115L36.8141 23.5892L36.8168 23.5905L36.906 23.4115ZM36.1952 22.8882L36.3376 22.7477L36.3364 22.7465L36.1952 22.8882ZM35.6784 22.1323L35.4843 22.1805L35.4883 22.197L35.4951 22.2125L35.6784 22.1323ZM32.2734 8.42286L32.4675 8.37465L32.467 8.37287L32.2734 8.42286ZM32.2281 8.19673L32.4261 8.16839L32.4247 8.15831L32.4222 8.14843L32.2281 8.19673ZM32.1894 7.95769L32.3888 7.94218L32.3885 7.93873L32.1894 7.95769ZM32.1765 7.66696L31.9765 7.6649V7.66696H32.1765ZM32.2798 7.10489L32.093 7.03345L32.0922 7.03566L32.2798 7.10489ZM32.6093 6.56866L32.4618 6.43367L32.4612 6.43427L32.6093 6.56866ZM33.165 6.16164L33.0844 5.97857L33.0808 5.98022L33.165 6.16164ZM33.9403 6.00658L33.9363 6.20696L33.9492 6.20638L33.9403 6.00658ZM34.8772 6.27793L34.9946 6.11598L34.9915 6.11382L34.8772 6.27793ZM35.4393 6.87877L35.6128 6.77898L35.6087 6.7724L35.4393 6.87877ZM35.7753 7.74449L35.9707 7.70179L35.9705 7.70115L35.7753 7.74449ZM37.972 17.7972L37.7767 17.8399L37.811 17.9972H37.972V17.7972ZM38.3985 17.7972V17.9972H38.5614L38.5943 17.8377L38.3985 17.7972ZM40.5888 7.74449L40.3941 7.69858L40.3935 7.70133L40.5888 7.74449ZM41.2737 6.55574L41.411 6.70111L41.4117 6.70043L41.2737 6.55574ZM42.4831 6.28411C42.6831 6.28293 42.8816 6.31989 43.0678 6.39302L43.214 6.0207C42.9805 5.92899 42.7316 5.88263 42.4807 5.88411L42.4831 6.28411ZM43.0645 6.39169C43.2472 6.46722 43.4159 6.5731 43.5633 6.70486L43.8298 6.40661C43.6488 6.24481 43.4417 6.11478 43.2173 6.02203L43.0645 6.39169ZM43.5624 6.70406C43.7143 6.84146 43.8424 7.00305 43.9415 7.18229L44.2916 6.98872C44.1711 6.77085 44.0154 6.57443 43.8307 6.40741L43.5624 6.70406ZM43.944 7.1866C44.0525 7.37191 44.1297 7.57387 44.1725 7.78433L44.5645 7.70465C44.513 7.45106 44.4199 7.20771 44.2891 6.98442L43.944 7.1866ZM44.173 7.78671L46.344 17.8394L46.7349 17.755L44.564 7.70227L44.173 7.78671ZM46.5395 17.9972H46.9659V17.5972H46.5395V17.9972ZM47.1614 17.8394C47.5146 16.2028 47.8764 14.5295 48.2468 12.8197L47.8559 12.735C47.4854 14.4449 47.1236 16.1183 46.7704 17.755L47.1614 17.8394ZM48.2468 12.8197C48.6172 11.1101 48.9854 9.43286 49.3514 7.78793L48.961 7.70105C48.5948 9.34673 48.2264 11.0247 47.8559 12.735L48.2468 12.8197ZM49.3509 7.79036C49.418 7.50559 49.5261 7.2321 49.672 6.97848L49.3253 6.77906C49.1601 7.06632 49.0375 7.37608 48.9615 7.69862L49.3509 7.79036ZM49.668 6.98513C49.8016 6.77241 49.9748 6.5873 50.1781 6.43985L49.9433 6.11601C49.6985 6.29351 49.4901 6.51633 49.3293 6.7724L49.668 6.98513ZM50.1757 6.4416C50.4128 6.27511 50.6986 6.19233 50.9879 6.20635L51.0073 5.80682C50.6291 5.7885 50.2556 5.89667 49.9458 6.11426L50.1757 6.4416ZM51.0016 6.20654C51.2392 6.20176 51.4749 6.2489 51.6923 6.34467L51.8536 5.97861C51.5828 5.85936 51.2893 5.80066 50.9936 5.80662L51.0016 6.20654ZM51.6887 6.34305C51.8751 6.42953 52.0424 6.55209 52.181 6.70365L52.4762 6.43367C52.3018 6.24308 52.0914 6.08896 51.8571 5.98022L51.6887 6.34305ZM52.1805 6.70304C52.306 6.84137 52.4046 7.00187 52.4713 7.17632L52.8449 7.03346C52.7605 6.8126 52.6356 6.6094 52.4767 6.43427L52.1805 6.70304ZM52.4705 7.17412C52.529 7.33265 52.5597 7.50006 52.5615 7.66903L52.9615 7.6649C52.9592 7.45007 52.9201 7.23722 52.8457 7.03566L52.4705 7.17412ZM52.5615 7.66696C52.5615 7.76485 52.5574 7.85537 52.5495 7.93873L52.9477 7.97665C52.9569 7.87912 52.9615 7.77582 52.9615 7.66696H52.5615ZM52.5492 7.94219C52.5438 8.01174 52.5326 8.08073 52.5157 8.14843L52.9039 8.24504C52.9261 8.15581 52.9408 8.06488 52.948 7.9732L52.5492 7.94219ZM52.5137 8.15751C52.497 8.24071 52.4807 8.31182 52.4649 8.37132L52.8513 8.47439C52.8699 8.40469 52.8881 8.32504 52.9059 8.23596L52.5137 8.15751ZM52.4641 8.37405L49.0139 22.0835L49.4018 22.1811L52.8521 8.47167L52.4641 8.37405ZM49.0245 22.0524C48.9121 22.3105 48.7547 22.5466 48.5596 22.7497L48.8482 23.0267C49.076 22.7895 49.2598 22.5137 49.3912 22.2122L49.0245 22.0524ZM48.5583 22.7511C48.375 22.9458 48.161 23.1092 47.925 23.235L48.1131 23.588C48.3875 23.4418 48.6363 23.2517 48.8495 23.0253L48.5583 22.7511ZM47.9284 23.2332C47.633 23.3835 47.3042 23.4561 46.973 23.4442L46.9587 23.844C47.3577 23.8583 47.7538 23.7708 48.1097 23.5898L47.9284 23.2332ZM46.9659 23.4441H46.5395V23.8441H46.9659V23.4441ZM46.5312 23.4443C46.2073 23.4576 45.8857 23.3853 45.5987 23.2345L45.4126 23.5885C45.7619 23.7721 46.1535 23.8602 46.5477 23.8439L46.5312 23.4443ZM45.6014 23.2359C45.3774 23.1138 45.1775 22.9518 45.0114 22.7581L44.7077 23.0183C44.9053 23.249 45.1433 23.4417 45.4099 23.5871L45.6014 23.2359ZM45.0144 22.7616C44.8466 22.5565 44.7184 22.3221 44.6362 22.0702L44.2559 22.1944C44.3535 22.4933 44.5057 22.7715 44.7048 23.0148L45.0144 22.7616ZM44.6406 22.0858L42.8767 14.7013L42.4877 14.7943L44.2515 22.1788L44.6406 22.0858ZM42.6822 14.5478H42.2557V14.9478H42.6822V14.5478ZM42.0607 14.7035C41.7896 15.8956 41.5012 17.1267 41.1955 18.3965L41.5844 18.4901C41.8904 17.2187 42.1792 15.9861 42.4508 14.7922L42.0607 14.7035ZM41.1955 18.3965C40.8896 19.6676 40.5987 20.8978 40.3229 22.0871L40.7125 22.1775C40.9881 20.9893 41.2787 19.7602 41.5844 18.4901L41.1955 18.3965ZM40.3312 22.0601C40.2328 22.3144 40.0934 22.5508 39.9185 22.7599L40.2253 23.0165C40.4283 22.7738 40.5901 22.4995 40.7042 22.2045L40.3312 22.0601ZM39.9226 22.7551C39.7514 22.9472 39.5501 23.1102 39.3266 23.2378L39.525 23.5852C39.786 23.4361 40.0211 23.2457 40.2212 23.0213L39.9226 22.7551ZM39.3319 23.2349C39.0479 23.386 38.7286 23.4582 38.4072 23.4443L38.3898 23.8439C38.7825 23.861 39.1726 23.7726 39.5197 23.5881L39.3319 23.2349ZM38.3985 23.4441H37.972V23.8441H38.3985V23.4441ZM37.9656 23.4442C37.6295 23.4551 37.2961 23.3823 36.9951 23.2325L36.8168 23.5905C37.1771 23.7699 37.5763 23.857 37.9785 23.844L37.9656 23.4442ZM36.9979 23.2339C36.7536 23.1075 36.5308 22.9434 36.3376 22.7477L36.0529 23.0287C36.2756 23.2543 36.5325 23.4435 36.8141 23.5891L36.9979 23.2339ZM36.3364 22.7465C36.1361 22.5468 35.975 22.3113 35.8616 22.0521L35.4951 22.2125C35.6286 22.5175 35.8182 22.7948 36.0541 23.0299L36.3364 22.7465ZM35.8725 22.0841L32.4675 8.37465L32.0793 8.47107L35.4843 22.1805L35.8725 22.0841ZM32.467 8.37287C32.4496 8.30552 32.436 8.23725 32.4261 8.16839L32.0302 8.22508C32.0421 8.30852 32.0587 8.39123 32.0797 8.47284L32.467 8.37287ZM32.4222 8.14843C32.4054 8.08073 32.3942 8.01174 32.3888 7.94219L31.99 7.9732C31.9971 8.06488 32.0119 8.15581 32.0341 8.24504L32.4222 8.14843ZM32.3885 7.93873C32.3805 7.85537 32.3765 7.76485 32.3765 7.66696H31.9765C31.9765 7.77582 31.981 7.87912 31.9903 7.97665L32.3885 7.93873ZM32.3764 7.66903C32.3782 7.50006 32.409 7.33265 32.4675 7.17412L32.0922 7.03566C32.0178 7.23722 31.9787 7.45007 31.9765 7.6649L32.3764 7.66903ZM32.4666 7.17632C32.5333 7.00187 32.632 6.84137 32.7575 6.70304L32.4612 6.43427C32.3023 6.6094 32.1775 6.8126 32.093 7.03346L32.4666 7.17632ZM32.7569 6.70365C32.8956 6.55209 33.0629 6.42953 33.2492 6.34305L33.0808 5.98022C32.8465 6.08896 32.6361 6.24308 32.4618 6.43367L32.7569 6.70365ZM33.2456 6.34467C33.463 6.2489 33.6988 6.20176 33.9363 6.20654L33.9444 5.80662C33.6486 5.80066 33.3551 5.85936 33.0844 5.97861L33.2456 6.34467ZM33.9492 6.20638C34.239 6.19345 34.5249 6.27626 34.7629 6.44204L34.9915 6.11382C34.6815 5.89783 34.3089 5.78993 33.9314 5.80678L33.9492 6.20638ZM34.7598 6.43985C34.9632 6.5873 35.1363 6.77241 35.2699 6.98513L35.6087 6.7724C35.4479 6.51633 35.2394 6.29351 34.9946 6.11601L34.7598 6.43985ZM35.2659 6.97848C35.411 7.23079 35.517 7.50369 35.58 7.78783L35.9705 7.70115C35.8987 7.37742 35.778 7.06651 35.6127 6.77905L35.2659 6.97848ZM35.5799 7.78719L37.7767 17.8399L38.1674 17.7545L35.9707 7.70179L35.5799 7.78719ZM37.972 17.9972H38.3985V17.5972H37.972V17.9972ZM38.5943 17.8377C38.7536 17.0675 38.9257 16.2562 39.1108 15.404L38.7199 15.3191C38.5346 16.1725 38.3621 16.985 38.2026 17.7567L38.5943 17.8377ZM39.1108 15.404C39.296 14.5513 39.4834 13.6899 39.6729 12.8199L39.2821 12.7347C39.0925 13.6048 38.9051 14.4663 38.7199 15.3191L39.1108 15.404ZM39.6729 12.8199C39.8624 11.9501 40.0518 11.089 40.2413 10.2365L39.8508 10.1497C39.6612 11.0028 39.4716 11.8645 39.2821 12.7347L39.6729 12.8199ZM40.2413 10.2365C40.4308 9.38359 40.6118 8.56732 40.7841 7.78765L40.3935 7.70133C40.2212 8.48083 40.0403 9.29695 39.8508 10.1497L40.2413 10.2365ZM40.7834 7.7904C40.8817 7.37379 41.0999 6.99509 41.411 6.70111L41.1363 6.41036C40.7684 6.75803 40.5103 7.20589 40.3941 7.69858L40.7834 7.7904ZM41.4117 6.70043C41.6986 6.42668 42.0819 6.27707 42.4784 6.28408L42.4854 5.88414C41.9837 5.87527 41.4986 6.0646 41.1356 6.41104L41.4117 6.70043Z" fill="#BFEAFF" mask="url(#path-1-inside-1_34_1787)"/>
<path d="M54.6992 18.9084V15.7814C54.682 15.1128 54.7893 14.4468 55.0158 13.8174C55.2014 13.3209 55.4774 12.863 55.8299 12.4671C56.1443 12.1227 56.5187 11.8381 56.9347 11.6272C57.3182 11.4344 57.721 11.2828 58.1365 11.175C58.4982 11.0776 58.868 11.0127 59.2413 10.9812C59.5816 10.9553 59.8487 10.9424 60.0425 10.9424C60.2363 10.9424 60.5012 10.9553 60.8372 10.9812C61.2 11.0118 61.5591 11.0767 61.9097 11.175C62.3131 11.2818 62.7032 11.4335 63.0727 11.6272C63.4755 11.8382 63.835 12.1231 64.1324 12.4671C64.4691 12.8674 64.7317 13.3247 64.9077 13.8174C65.1207 14.4497 65.2213 15.1144 65.2049 15.7814V18.9084C65.2213 19.5754 65.1207 20.2401 64.9077 20.8724C64.7317 21.365 64.4691 21.8223 64.1324 22.2227C63.8373 22.569 63.4773 22.8543 63.0727 23.0625C62.7025 23.2564 62.3126 23.4102 61.9097 23.5212C61.5585 23.6155 61.1996 23.6782 60.8372 23.7086C60.5012 23.7344 60.2363 23.7474 60.0425 23.7474C59.8487 23.7474 59.5816 23.7344 59.2413 23.7086C58.8684 23.6773 58.4988 23.6146 58.1365 23.5212C57.7215 23.4091 57.3189 23.2554 56.9347 23.0625C56.5168 22.8546 56.142 22.5696 55.8299 22.2227C55.4774 21.8267 55.2014 21.3689 55.0158 20.8724C54.7893 20.243 54.682 19.577 54.6992 18.9084ZM58.5823 15.2258V19.787C58.5856 20.0135 58.6455 20.2356 58.7567 20.4331C58.8612 20.6157 59.0101 20.769 59.1896 20.8788C59.4497 21.0233 59.7455 21.0906 60.0425 21.0727C60.3271 21.0901 60.6104 21.0227 60.8566 20.8788C61.0305 20.7663 61.1746 20.6134 61.2766 20.4331C61.3798 20.2325 61.4393 20.0123 61.451 19.787V15.2258C61.4364 14.9865 61.3773 14.7521 61.2766 14.5345C61.1712 14.3496 61.0281 14.1889 60.8566 14.0629C60.6169 13.9018 60.3307 13.8246 60.0425 13.8432C59.7421 13.824 59.4434 13.901 59.1896 14.0629C59.0123 14.1863 58.8645 14.3473 58.7567 14.5345C58.6481 14.7492 58.5885 14.9853 58.5823 15.2258Z" fill="#80D6FF"/>
<path d="M75.1808 12.9387C75.2039 13.1983 75.1727 13.4598 75.0893 13.7068C75.0059 13.9537 74.872 14.1805 74.6962 14.3729C74.313 14.6956 73.8199 14.8576 73.32 14.8252C73.2339 14.8252 73.1132 14.8316 72.9582 14.8446C72.789 14.8604 72.6221 14.8951 72.4607 14.9479C72.2726 15.0047 72.0924 15.085 71.9244 15.187C71.7343 15.2981 71.5658 15.4426 71.4269 15.6134C71.2641 15.8168 71.1413 16.0491 71.0651 16.2982C70.9641 16.62 70.9161 16.956 70.9229 17.2931V20.8982C70.9233 21.2348 70.9061 21.5712 70.8712 21.906C70.8394 22.2102 70.7518 22.5058 70.6128 22.7782C70.4771 23.0344 70.2766 23.2504 70.0313 23.4049C69.7201 23.5785 69.3664 23.6613 69.0105 23.6439C68.6626 23.6628 68.3168 23.5798 68.0154 23.4049C67.7747 23.2509 67.5804 23.0342 67.4533 22.7782C67.3184 22.5047 67.2331 22.2094 67.2014 21.906C67.1622 21.5715 67.1428 21.235 67.1432 20.8982V13.8432C67.1426 13.4999 67.1621 13.1569 67.2014 12.8159C67.2332 12.5085 67.3184 12.2089 67.4533 11.9308C67.578 11.6732 67.7728 11.456 68.0154 11.3041C68.3183 11.1336 68.6634 11.053 69.0105 11.0716C69.3629 11.0491 69.7123 11.1496 69.999 11.3558C70.2332 11.5475 70.4098 11.8002 70.5094 12.0859C70.6215 12.4062 70.6847 12.7416 70.6968 13.0808C70.714 13.4469 70.7226 13.8023 70.7226 14.1468H70.9229C71.0334 13.7046 71.1916 13.2757 71.3946 12.8676C71.5625 12.5169 71.7777 12.1908 72.0342 11.8985C72.2476 11.6505 72.5036 11.4426 72.7902 11.2848C73.0375 11.1478 73.3151 11.0745 73.5978 11.0716C73.8687 11.0638 74.139 11.0987 74.399 11.1749C74.5888 11.2393 74.7567 11.3557 74.8836 11.5109C75.0088 11.6827 75.0908 11.8822 75.1226 12.0923C75.1648 12.3724 75.1843 12.6555 75.1808 12.9387Z" fill="#80D6FF"/>
<path d="M87.5513 8.88148V20.7949C87.5513 21.1481 87.5405 21.4948 87.519 21.835C87.499 22.1519 87.4224 22.4626 87.2928 22.7524C87.1665 23.0161 86.9698 23.2397 86.7242 23.3985C86.4015 23.5793 86.034 23.6644 85.6646 23.644C85.2886 23.6634 84.9142 23.5831 84.5792 23.4114C84.3406 23.2761 84.1421 23.0799 84.0041 22.8429C83.8771 22.6298 83.7978 22.3918 83.7715 22.1452C83.7442 21.9395 83.7291 21.7324 83.7263 21.5249C83.6435 21.7827 83.5353 22.0315 83.4032 22.2679C83.2636 22.5243 83.0824 22.7557 82.867 22.9527C82.635 23.163 82.3683 23.3313 82.0787 23.4502C81.7356 23.5863 81.3687 23.6523 80.9997 23.644C80.5297 23.6425 80.063 23.5662 79.617 23.4179C79.1497 23.2632 78.7234 23.0048 78.3701 22.662C77.9748 22.2711 77.6685 21.7995 77.472 21.2794C77.2211 20.6109 77.1026 19.8999 77.1231 19.1862V15.5295C77.1019 14.8114 77.2204 14.0962 77.472 13.4233C77.6674 12.9046 77.9739 12.4349 78.3701 12.0472C78.7248 11.7077 79.1508 11.4517 79.617 11.2978C80.063 11.1494 80.5297 11.0731 80.9997 11.0716C81.3681 11.0636 81.7346 11.1272 82.0787 11.259C82.3688 11.374 82.6358 11.5404 82.867 11.75C83.0824 11.947 83.2636 12.1784 83.4032 12.4348C83.5369 12.6749 83.6452 12.9282 83.7263 13.1907V8.88148C83.7263 8.51969 83.7435 8.16435 83.778 7.81548C83.8088 7.49543 83.894 7.18299 84.03 6.89161C84.1626 6.62988 84.3635 6.40887 84.6115 6.25201C84.9324 6.07276 85.2975 5.98767 85.6646 6.0065C86.0172 5.98984 86.3671 6.07507 86.6726 6.25201C86.9176 6.41037 87.1161 6.63113 87.2476 6.89161C87.3835 7.18299 87.4688 7.49543 87.4996 7.81548C87.534 8.16435 87.5513 8.51969 87.5513 8.88148ZM80.9997 15.8073V18.8567C80.9997 19.085 81.0083 19.3068 81.0256 19.5221C81.0392 19.7268 81.0872 19.9278 81.1677 20.1165C81.2357 20.2866 81.3527 20.4327 81.5037 20.5365C81.6837 20.6537 81.8965 20.7103 82.111 20.698C82.3945 20.7103 82.6747 20.6335 82.9122 20.4783C83.1372 20.3023 83.3057 20.0642 83.3968 19.7935C83.5278 19.4201 83.6104 19.0314 83.6423 18.637C83.6897 18.1719 83.7177 17.6163 83.7263 16.9702C83.7232 16.6674 83.6995 16.3652 83.6552 16.0657C83.6107 15.7365 83.5283 15.4134 83.4097 15.1031C83.302 14.8151 83.1347 14.553 82.9187 14.3343C82.8127 14.2292 82.6865 14.1469 82.5476 14.0925C82.4087 14.038 82.2601 14.0126 82.111 14.0177C81.8965 14.0054 81.6837 14.062 81.5037 14.1792C81.3551 14.28 81.2385 14.4212 81.1677 14.5862C81.0867 14.768 81.0386 14.9627 81.0256 15.1612C81.0083 15.3723 80.9997 15.5876 80.9997 15.8073Z" fill="#80D6FF"/>
<mask id="path-6-inside-2_34_1787" fill="white">
<path d="M99.7982 6.084C100.024 6.08267 100.247 6.12433 100.457 6.20676C100.661 6.2909 100.849 6.40885 101.013 6.55563C101.181 6.70784 101.323 6.88685 101.433 7.0854C101.553 7.28971 101.638 7.51236 101.685 7.74438L103.856 17.7971H104.282C104.635 16.1604 104.997 14.4871 105.368 12.7772C105.738 11.0673 106.106 9.38969 106.473 7.74438C106.544 7.44073 106.659 7.1491 106.815 6.87866C106.962 6.64426 107.153 6.4403 107.377 6.27782C107.651 6.08579 107.98 5.99031 108.314 6.00648C108.581 6.0011 108.845 6.05402 109.089 6.16153C109.3 6.25914 109.488 6.39748 109.645 6.56855C109.787 6.72528 109.899 6.90713 109.974 7.10478C110.041 7.28483 110.076 7.47496 110.078 7.66686C110.078 7.77023 110.074 7.86714 110.065 7.95758C110.059 8.0382 110.046 8.11816 110.026 8.19663C110.009 8.28277 109.992 8.35814 109.974 8.42275L106.524 22.1322C106.402 22.412 106.232 22.6679 106.02 22.8881C105.822 23.0986 105.591 23.2754 105.335 23.4114C105.01 23.577 104.647 23.6571 104.282 23.644H103.856C103.497 23.6588 103.14 23.5786 102.822 23.4114C102.577 23.2776 102.358 23.1003 102.176 22.8881C101.993 22.6639 101.852 22.4076 101.762 22.1322L99.9985 14.7477H99.5721C99.3007 15.9408 99.0121 17.1726 98.7063 18.4432C98.4005 19.7138 98.1097 20.9434 97.8341 22.1322C97.7278 22.4068 97.5772 22.6622 97.3882 22.8881C97.2026 23.0963 96.9844 23.2731 96.7421 23.4114C96.4266 23.5792 96.0719 23.6595 95.7148 23.644H95.2884C94.9193 23.6559 94.5529 23.576 94.2223 23.4114C93.9594 23.2754 93.7195 23.0988 93.5116 22.8881C93.2935 22.6707 93.1182 22.4143 92.9947 22.1322L89.5897 8.42275C89.5705 8.34827 89.5554 8.27278 89.5445 8.19663C89.525 8.11816 89.512 8.0382 89.5057 7.95758C89.4971 7.86714 89.4928 7.77023 89.4928 7.66686C89.4948 7.47496 89.5297 7.28483 89.5962 7.10478C89.6718 6.90713 89.7835 6.72528 89.9257 6.56855C90.0822 6.39748 90.271 6.25914 90.4813 6.16153C90.7254 6.05402 90.99 6.0011 91.2567 6.00648C91.5903 5.99158 91.9195 6.08694 92.1935 6.27782C92.4176 6.4403 92.6084 6.64426 92.7556 6.87866C92.9109 7.14854 93.0242 7.44045 93.0916 7.74438L95.2884 17.7971H95.7148C95.8742 17.0261 96.0465 16.2143 96.2317 15.3615C96.4169 14.5087 96.6043 13.6472 96.7938 12.7772C96.9834 11.9072 97.1729 11.0458 97.3624 10.193C97.5519 9.34016 97.7328 8.52397 97.9051 7.74438C98.0124 7.28973 98.2505 6.87646 98.59 6.55563C98.915 6.24553 99.3491 6.07607 99.7982 6.084Z"/>
</mask>
<path d="M99.7982 6.084C100.024 6.08267 100.247 6.12433 100.457 6.20676C100.661 6.2909 100.849 6.40885 101.013 6.55563C101.181 6.70784 101.323 6.88685 101.433 7.0854C101.553 7.28971 101.638 7.51236 101.685 7.74438L103.856 17.7971H104.282C104.635 16.1604 104.997 14.4871 105.368 12.7772C105.738 11.0673 106.106 9.38969 106.473 7.74438C106.544 7.44073 106.659 7.1491 106.815 6.87866C106.962 6.64426 107.153 6.4403 107.377 6.27782C107.651 6.08579 107.98 5.99031 108.314 6.00648C108.581 6.0011 108.845 6.05402 109.089 6.16153C109.3 6.25914 109.488 6.39748 109.645 6.56855C109.787 6.72528 109.899 6.90713 109.974 7.10478C110.041 7.28483 110.076 7.47496 110.078 7.66686C110.078 7.77023 110.074 7.86714 110.065 7.95758C110.059 8.0382 110.046 8.11816 110.026 8.19663C110.009 8.28277 109.992 8.35814 109.974 8.42275L106.524 22.1322C106.402 22.412 106.232 22.6679 106.02 22.8881C105.822 23.0986 105.591 23.2754 105.335 23.4114C105.01 23.577 104.647 23.6571 104.282 23.644H103.856C103.497 23.6588 103.14 23.5786 102.822 23.4114C102.577 23.2776 102.358 23.1003 102.176 22.8881C101.993 22.6639 101.852 22.4076 101.762 22.1322L99.9985 14.7477H99.5721C99.3007 15.9408 99.0121 17.1726 98.7063 18.4432C98.4005 19.7138 98.1097 20.9434 97.8341 22.1322C97.7278 22.4068 97.5772 22.6622 97.3882 22.8881C97.2026 23.0963 96.9844 23.2731 96.7421 23.4114C96.4266 23.5792 96.0719 23.6595 95.7148 23.644H95.2884C94.9193 23.6559 94.5529 23.576 94.2223 23.4114C93.9594 23.2754 93.7195 23.0988 93.5116 22.8881C93.2935 22.6707 93.1182 22.4143 92.9947 22.1322L89.5897 8.42275C89.5705 8.34827 89.5554 8.27278 89.5445 8.19663C89.525 8.11816 89.512 8.0382 89.5057 7.95758C89.4971 7.86714 89.4928 7.77023 89.4928 7.66686C89.4948 7.47496 89.5297 7.28483 89.5962 7.10478C89.6718 6.90713 89.7835 6.72528 89.9257 6.56855C90.0822 6.39748 90.271 6.25914 90.4813 6.16153C90.7254 6.05402 90.99 6.0011 91.2567 6.00648C91.5903 5.99158 91.9195 6.08694 92.1935 6.27782C92.4176 6.4403 92.6084 6.64426 92.7556 6.87866C92.9109 7.14854 93.0242 7.44045 93.0916 7.74438L95.2884 17.7971H95.7148C95.8742 17.0261 96.0465 16.2143 96.2317 15.3615C96.4169 14.5087 96.6043 13.6472 96.7938 12.7772C96.9834 11.9072 97.1729 11.0458 97.3624 10.193C97.5519 9.34016 97.7328 8.52397 97.9051 7.74438C98.0124 7.28973 98.2505 6.87646 98.59 6.55563C98.915 6.24553 99.3491 6.07607 99.7982 6.084Z" fill="white"/>
<path d="M99.7982 6.084L99.7947 6.28403L99.7994 6.284L99.7982 6.084ZM100.457 6.20676L100.534 6.02189L100.53 6.0206L100.457 6.20676ZM101.013 6.55563L101.147 6.4073L101.146 6.40651L101.013 6.55563ZM101.433 7.0854L101.258 7.18221L101.26 7.18649L101.433 7.0854ZM101.685 7.74438L101.489 7.78423L101.489 7.7866L101.685 7.74438ZM103.856 17.7971L103.66 17.8393L103.694 17.9971H103.856V17.7971ZM104.282 17.7971V17.9971H104.444L104.478 17.8393L104.282 17.7971ZM106.473 7.74438L106.278 7.69851L106.277 7.70094L106.473 7.74438ZM106.815 6.87866L106.645 6.77221L106.642 6.77895L106.815 6.87866ZM107.377 6.27782L107.262 6.11413L107.26 6.1159L107.377 6.27782ZM108.314 6.00648L108.304 6.20671L108.318 6.20644L108.314 6.00648ZM109.089 6.16153L109.173 5.98008L109.17 5.9785L109.089 6.16153ZM109.645 6.56855L109.793 6.43417L109.793 6.43356L109.645 6.56855ZM109.974 7.10478L110.162 7.03555L110.161 7.03335L109.974 7.10478ZM110.078 7.66686L110.278 7.66686L110.278 7.66479L110.078 7.66686ZM110.065 7.95758L109.866 7.93862L109.866 7.94208L110.065 7.95758ZM110.026 8.19663L109.832 8.14827L109.83 8.1574L110.026 8.19663ZM109.974 8.42275L109.781 8.37121L109.78 8.37394L109.974 8.42275ZM106.524 22.1322L106.708 22.2121L106.714 22.197L106.718 22.181L106.524 22.1322ZM106.02 22.8881L105.876 22.7496L105.875 22.751L106.02 22.8881ZM105.335 23.4114L105.426 23.5897L105.429 23.5879L105.335 23.4114ZM104.282 23.644L104.289 23.444H104.282V23.644ZM103.856 23.644V23.4438L103.848 23.4442L103.856 23.644ZM102.822 23.4114L102.726 23.587L102.729 23.5884L102.822 23.4114ZM102.176 22.8881L102.021 23.0148L102.024 23.0182L102.176 22.8881ZM101.762 22.1322L101.568 22.1787L101.57 22.1866L101.572 22.1943L101.762 22.1322ZM99.9985 14.7477L100.193 14.7012L100.156 14.5477H99.9985V14.7477ZM99.5721 14.7477V14.5477H99.4125L99.3771 14.7033L99.5721 14.7477ZM97.8341 22.1322L98.0206 22.2044L98.0257 22.1912L98.0289 22.1774L97.8341 22.1322ZM97.3882 22.8881L97.5376 23.0213L97.5417 23.0164L97.3882 22.8881ZM96.7421 23.4114L96.8361 23.5881L96.8413 23.5851L96.7421 23.4114ZM95.7148 23.644L95.7235 23.444H95.7148V23.644ZM95.2884 23.644V23.4439L95.2819 23.4441L95.2884 23.644ZM94.2223 23.4114L94.1304 23.5891L94.1332 23.5904L94.2223 23.4114ZM93.5116 22.8881L93.6539 22.7476L93.6528 22.7464L93.5116 22.8881ZM92.9947 22.1322L92.8006 22.1804L92.8047 22.1969L92.8115 22.2124L92.9947 22.1322ZM89.5897 8.42275L89.7838 8.37454L89.7834 8.37277L89.5897 8.42275ZM89.5445 8.19663L89.7425 8.16828L89.741 8.1582L89.7386 8.14832L89.5445 8.19663ZM89.5057 7.95758L89.7051 7.94208L89.7048 7.93862L89.5057 7.95758ZM89.4928 7.66686L89.2928 7.66479V7.66686H89.4928ZM89.5962 7.10478L89.4094 7.03334L89.4085 7.03556L89.5962 7.10478ZM89.9257 6.56855L89.7781 6.43356L89.7776 6.43417L89.9257 6.56855ZM90.4813 6.16153L90.4007 5.97847L90.3971 5.98012L90.4813 6.16153ZM91.2567 6.00648L91.2526 6.20686L91.2656 6.20628L91.2567 6.00648ZM92.1935 6.27782L92.311 6.11587L92.3079 6.11372L92.1935 6.27782ZM92.7556 6.87866L92.9291 6.77887L92.925 6.77229L92.7556 6.87866ZM93.0916 7.74438L93.287 7.70169L93.2869 7.70104L93.0916 7.74438ZM95.2884 17.7971L95.093 17.8398L95.1274 17.9971H95.2884V17.7971ZM95.7148 17.7971V17.9971H95.8777L95.9107 17.8376L95.7148 17.7971ZM97.9051 7.74438L97.7105 7.69847L97.7098 7.70122L97.9051 7.74438ZM98.59 6.55563L98.7274 6.701L98.7281 6.70032L98.59 6.55563ZM99.7994 6.284C99.9995 6.28282 100.198 6.31979 100.384 6.39292L100.53 6.0206C100.297 5.92888 100.048 5.88253 99.7971 5.88401L99.7994 6.284ZM100.381 6.39159C100.564 6.46712 100.732 6.573 100.88 6.70475L101.146 6.40651C100.965 6.2447 100.758 6.11468 100.534 6.02192L100.381 6.39159ZM100.879 6.70395C101.031 6.84135 101.159 7.00295 101.258 7.18218L101.608 6.98862C101.487 6.77075 101.332 6.57432 101.147 6.40731L100.879 6.70395ZM101.26 7.18649C101.369 7.37181 101.446 7.57376 101.489 7.78423L101.881 7.70454C101.829 7.45095 101.736 7.20761 101.605 6.98431L101.26 7.18649ZM101.489 7.7866L103.66 17.8393L104.051 17.7549L101.88 7.70217L101.489 7.7866ZM103.856 17.9971H104.282V17.5971H103.856V17.9971ZM104.478 17.8393C104.831 16.2027 105.193 14.5294 105.563 12.8196L105.172 12.7349C104.802 14.4448 104.44 16.1182 104.087 17.7549L104.478 17.8393ZM105.563 12.8196C105.934 11.11 106.302 9.43275 106.668 7.78783L106.277 7.70094C105.911 9.34663 105.543 11.0246 105.172 12.7349L105.563 12.8196ZM106.667 7.79025C106.734 7.50548 106.842 7.23199 106.988 6.97837L106.642 6.77895C106.476 7.06621 106.354 7.37597 106.278 7.69851L106.667 7.79025ZM106.984 6.98503C107.118 6.7723 107.291 6.58719 107.494 6.43974L107.26 6.1159C107.015 6.2934 106.806 6.51623 106.646 6.77229L106.984 6.98503ZM107.492 6.44149C107.729 6.275 108.015 6.19223 108.304 6.20624L108.324 5.80671C107.945 5.78839 107.572 5.89657 107.262 6.11415L107.492 6.44149ZM108.318 6.20644C108.556 6.20165 108.791 6.24879 109.009 6.34456L109.17 5.9785C108.899 5.85925 108.606 5.80056 108.31 5.80652L108.318 6.20644ZM109.005 6.34294C109.191 6.42942 109.359 6.55198 109.497 6.70354L109.793 6.43356C109.618 6.24298 109.408 6.08886 109.173 5.98012L109.005 6.34294ZM109.497 6.70293C109.622 6.84126 109.721 7.00176 109.788 7.17621L110.161 7.03335C110.077 6.81249 109.952 6.6093 109.793 6.43417L109.497 6.70293ZM109.787 7.17401C109.845 7.33254 109.876 7.49996 109.878 7.66892L110.278 7.66479C110.276 7.44996 110.236 7.23711 110.162 7.03556L109.787 7.17401ZM109.878 7.66686C109.878 7.76474 109.874 7.85526 109.866 7.93862L110.264 7.97655C110.273 7.87901 110.278 7.77572 110.278 7.66686H109.878ZM109.866 7.94208C109.86 8.01163 109.849 8.08062 109.832 8.14832L110.22 8.24494C110.242 8.1557 110.257 8.06477 110.264 7.97309L109.866 7.94208ZM109.83 8.1574C109.813 8.24061 109.797 8.31171 109.781 8.37121L110.168 8.47429C110.186 8.40458 110.204 8.32493 110.222 8.23585L109.83 8.1574ZM109.78 8.37394L106.33 22.0834L106.718 22.181L110.168 8.47156L109.78 8.37394ZM106.341 22.0523C106.228 22.3104 106.071 22.5465 105.876 22.7496L106.165 23.0266C106.392 22.7894 106.576 22.5136 106.708 22.2121L106.341 22.0523ZM105.875 22.751C105.691 22.9457 105.477 23.1091 105.241 23.2349L105.429 23.5879C105.704 23.4417 105.953 23.2516 106.166 23.0252L105.875 22.751ZM105.245 23.2331C104.949 23.3834 104.621 23.456 104.289 23.4441L104.275 23.8439C104.674 23.8582 105.07 23.7707 105.426 23.5897L105.245 23.2331ZM104.282 23.444H103.856V23.844H104.282V23.444ZM103.848 23.4442C103.524 23.4575 103.202 23.3852 102.915 23.2344L102.729 23.5884C103.078 23.772 103.47 23.8601 103.864 23.8438L103.848 23.4442ZM102.918 23.2358C102.694 23.1137 102.494 22.9517 102.328 22.758L102.024 23.0182C102.222 23.2489 102.46 23.4416 102.726 23.587L102.918 23.2358ZM102.331 22.7615C102.163 22.5564 102.035 22.322 101.953 22.0701L101.572 22.1943C101.67 22.4932 101.822 22.7714 102.021 23.0147L102.331 22.7615ZM101.957 22.0857L100.193 14.7012L99.804 14.7942L101.568 22.1787L101.957 22.0857ZM99.9985 14.5477H99.5721V14.9477H99.9985V14.5477ZM99.3771 14.7033C99.1059 15.8955 98.8175 17.1265 98.5119 18.3964L98.9008 18.49C99.2068 17.2186 99.4955 15.986 99.7671 14.7921L99.3771 14.7033ZM98.5119 18.3964C98.2059 19.6675 97.915 20.8977 97.6392 22.087L98.0289 22.1774C98.3044 20.9892 98.5951 19.7601 98.9008 18.49L98.5119 18.3964ZM97.6475 22.06C97.5491 22.3143 97.4097 22.5507 97.2348 22.7598L97.5417 23.0164C97.7446 22.7737 97.9064 22.4994 98.0206 22.2044L97.6475 22.06ZM97.239 22.755C97.0677 22.9471 96.8664 23.1101 96.643 23.2377L96.8413 23.5851C97.1024 23.436 97.3375 23.2456 97.5375 23.0212L97.239 22.755ZM96.6482 23.2348C96.3642 23.3858 96.0449 23.4581 95.7235 23.4442L95.7061 23.8438C96.0989 23.8609 96.489 23.7725 96.836 23.588L96.6482 23.2348ZM95.7148 23.444H95.2884V23.844H95.7148V23.444ZM95.2819 23.4441C94.9459 23.455 94.6124 23.3822 94.3115 23.2324L94.1332 23.5904C94.4934 23.7698 94.8926 23.8569 95.2949 23.8439L95.2819 23.4441ZM94.3142 23.2338C94.0699 23.1074 93.8471 22.9433 93.6539 22.7476L93.3692 23.0286C93.5919 23.2542 93.8488 23.4434 94.1304 23.589L94.3142 23.2338ZM93.6528 22.7464C93.4524 22.5467 93.2913 22.3112 93.1779 22.052L92.8115 22.2124C92.945 22.5174 93.1346 22.7947 93.3704 23.0297L93.6528 22.7464ZM93.1888 22.084L89.7838 8.37454L89.3956 8.47096L92.8006 22.1804L93.1888 22.084ZM89.7834 8.37277C89.766 8.30541 89.7523 8.23714 89.7425 8.16828L89.3465 8.22498C89.3585 8.30841 89.375 8.39112 89.3961 8.47273L89.7834 8.37277ZM89.7386 8.14832C89.7217 8.08062 89.7105 8.01164 89.7051 7.94208L89.3063 7.97309C89.3135 8.06477 89.3282 8.1557 89.3504 8.24494L89.7386 8.14832ZM89.7048 7.93862C89.6969 7.85526 89.6928 7.76474 89.6928 7.66686H89.2928C89.2928 7.77572 89.2973 7.87901 89.3066 7.97655L89.7048 7.93862ZM89.6928 7.66892C89.6945 7.49995 89.7253 7.33254 89.7838 7.17401L89.4085 7.03556C89.3342 7.23712 89.295 7.44996 89.2928 7.66479L89.6928 7.66892ZM89.783 7.17621C89.8497 7.00176 89.9483 6.84127 90.0738 6.70293L89.7776 6.43417C89.6187 6.6093 89.4938 6.81249 89.4094 7.03335L89.783 7.17621ZM90.0733 6.70354C90.2119 6.55198 90.3792 6.42942 90.5655 6.34294L90.3971 5.98012C90.1629 6.08886 89.9525 6.24298 89.7781 6.43356L90.0733 6.70354ZM90.562 6.34456C90.7794 6.24879 91.0151 6.20165 91.2526 6.20644L91.2607 5.80652C90.9649 5.80056 90.6714 5.85925 90.4007 5.9785L90.562 6.34456ZM91.2656 6.20628C91.5553 6.19334 91.8413 6.27616 92.0792 6.44193L92.3079 6.11372C91.9978 5.89773 91.6253 5.78982 91.2478 5.80668L91.2656 6.20628ZM92.0761 6.43974C92.2795 6.58719 92.4527 6.7723 92.5863 6.98503L92.925 6.77229C92.7642 6.51622 92.5557 6.2934 92.3109 6.1159L92.0761 6.43974ZM92.5823 6.97838C92.7274 7.23068 92.8333 7.50358 92.8964 7.78772L93.2869 7.70104C93.215 7.37732 93.0943 7.0664 92.929 6.77894L92.5823 6.97838ZM92.8962 7.78708L95.093 17.8398L95.4838 17.7544L93.287 7.70169L92.8962 7.78708ZM95.2884 17.9971H95.7148V17.5971H95.2884V17.9971ZM95.9107 17.8376C96.0699 17.0674 96.2421 16.2561 96.4272 15.4039L96.0363 15.319C95.8509 16.1724 95.6785 16.9849 95.519 17.7566L95.9107 17.8376ZM96.4272 15.4039C96.6124 14.5511 96.7997 13.6898 96.9892 12.8198L96.5984 12.7346C96.4089 13.6047 96.2215 14.4662 96.0363 15.319L96.4272 15.4039ZM96.9892 12.8198C97.1787 11.95 97.3682 11.0889 97.5576 10.2364L97.1672 10.1496C96.9776 11.0027 96.788 11.8643 96.5984 12.7346L96.9892 12.8198ZM97.5576 10.2364C97.7472 9.38348 97.9281 8.56721 98.1004 7.78754L97.7098 7.70122C97.5376 8.48072 97.3567 9.29684 97.1672 10.1496L97.5576 10.2364ZM98.0998 7.79029C98.1981 7.37368 98.4162 6.99499 98.7274 6.701L98.4527 6.41026C98.0847 6.75793 97.8267 7.20578 97.7105 7.69847L98.0998 7.79029ZM98.7281 6.70032C99.015 6.42657 99.3982 6.27697 99.7947 6.28397L99.8018 5.88403C99.3 5.87517 98.815 6.06449 98.4519 6.41094L98.7281 6.70032Z" fill="#BFEAFF" mask="url(#path-6-inside-2_34_1787)"/>
<path d="M122.522 15.5553V20.7949C122.522 21.1424 122.503 21.4897 122.464 21.835C122.435 22.1534 122.35 22.4642 122.212 22.7524C122.085 23.0161 121.889 23.2397 121.643 23.3985C121.329 23.5774 120.97 23.6625 120.609 23.644C120.246 23.663 119.885 23.5778 119.569 23.3985C119.316 23.2408 119.111 23.0176 118.975 22.7524C118.832 22.4646 118.74 22.1542 118.703 21.835C118.664 21.4897 118.645 21.1424 118.645 20.7949V15.8331C118.645 15.6134 118.636 15.3981 118.619 15.187C118.606 14.9885 118.558 14.7938 118.477 14.612C118.406 14.4471 118.293 14.3043 118.148 14.1986C117.963 14.0861 117.749 14.0321 117.534 14.0435C117.381 14.038 117.229 14.0651 117.087 14.1231C116.946 14.181 116.818 14.2684 116.713 14.3795C116.478 14.6423 116.308 14.9565 116.216 15.2969C116.084 15.7499 115.999 16.2154 115.964 16.6859C115.916 17.2157 115.893 17.7885 115.893 18.4044V20.7949C115.893 21.1422 115.876 21.4894 115.841 21.835C115.808 22.1534 115.721 22.4638 115.583 22.7524C115.449 23.0194 115.243 23.2433 114.988 23.3985C114.665 23.5782 114.298 23.6633 113.928 23.644C113.568 23.6625 113.209 23.5774 112.895 23.3985C112.649 23.2397 112.452 23.0161 112.326 22.7524C112.188 22.4642 112.103 22.1534 112.074 21.835C112.035 21.4897 112.016 21.1424 112.016 20.7949V8.85562C112.016 8.50808 112.035 8.1608 112.074 7.81546C112.103 7.49704 112.188 7.1863 112.326 6.89805C112.452 6.63436 112.649 6.41075 112.895 6.25198C113.209 6.07311 113.568 5.98792 113.928 6.00648C114.298 5.98719 114.665 6.07227 114.988 6.25198C115.243 6.40715 115.449 6.63108 115.583 6.89805C115.721 7.18665 115.808 7.49703 115.841 7.81546C115.876 8.16109 115.893 8.50825 115.893 8.85562V13.1649C115.976 12.9063 116.086 12.6572 116.222 12.4219C116.367 12.1639 116.555 11.9324 116.778 11.7371C117.016 11.5285 117.287 11.3605 117.579 11.2396C117.918 11.1042 118.28 11.0383 118.645 11.0458C119.118 11.0477 119.587 11.1263 120.034 11.2784C120.502 11.4351 120.928 11.6957 121.281 12.0407C121.676 12.4373 121.982 12.9129 122.179 13.4362C122.425 14.1148 122.542 14.8337 122.522 15.5553Z" fill="#80D6FF"/>
<path d="M124.458 20.8207V13.8691C124.458 13.5237 124.477 13.1785 124.516 12.8354C124.549 12.5211 124.636 12.2149 124.775 11.9309C124.908 11.6691 125.108 11.4481 125.356 11.2913C125.666 11.1123 126.02 11.027 126.377 11.0458C126.734 11.0281 127.088 11.1133 127.398 11.2913C127.643 11.4496 127.842 11.6704 127.973 11.9309C128.115 12.2134 128.203 12.5203 128.232 12.8354C128.271 13.1785 128.29 13.5237 128.29 13.8691V20.8207C128.29 21.1682 128.271 21.5155 128.232 21.8608C128.204 22.1761 128.117 22.4832 127.973 22.7653C127.844 23.0274 127.645 23.2488 127.398 23.4049C127.087 23.5785 126.733 23.6614 126.377 23.644C126.021 23.6624 125.667 23.5796 125.356 23.4049C125.107 23.2503 124.905 23.0287 124.775 22.7653C124.635 22.4817 124.548 22.1754 124.516 21.8608C124.477 21.5155 124.458 21.1682 124.458 20.8207ZM128.316 7.91881C128.337 8.18184 128.303 8.44645 128.217 8.69568C128.13 8.9449 127.992 9.17323 127.812 9.36599C127.421 9.69987 126.916 9.86897 126.403 9.83762C125.888 9.86964 125.381 9.70056 124.988 9.36599C124.808 9.17323 124.67 8.9449 124.583 8.69568C124.496 8.44645 124.463 8.18184 124.484 7.91881C124.46 7.6536 124.492 7.38619 124.579 7.13442C124.666 6.88264 124.805 6.65228 124.988 6.45871C125.386 6.13594 125.891 5.97453 126.403 6.00647C126.924 5.96464 127.44 6.1268 127.844 6.45871C128.017 6.65754 128.148 6.88945 128.229 7.14042C128.311 7.39139 128.34 7.65619 128.316 7.91881Z" fill="#80D6FF"/>
<path d="M132.597 11.0457H137.585C137.842 11.0474 138.099 11.069 138.354 11.1103C138.618 11.1487 138.875 11.2271 139.116 11.3429C139.346 11.4526 139.545 11.6167 139.698 11.821C139.86 12.051 139.941 12.328 139.93 12.6092C139.93 12.7542 139.906 12.8983 139.859 13.0356C139.814 13.1838 139.757 13.3285 139.691 13.4685C139.622 13.6192 139.549 13.7657 139.471 13.9078C139.394 14.0499 139.321 14.1878 139.252 14.3213L134.865 20.4459H137.636C137.926 20.4458 138.215 20.4609 138.502 20.4912C138.763 20.5117 139.017 20.5818 139.252 20.6979C139.468 20.8066 139.651 20.9718 139.781 21.176C139.927 21.4357 139.997 21.7313 139.982 22.0288C139.996 22.3262 139.926 22.6215 139.781 22.8816C139.652 23.0895 139.469 23.259 139.252 23.3726C139.017 23.4892 138.763 23.5635 138.502 23.5923C138.215 23.6269 137.926 23.6442 137.636 23.644H132.674C132.409 23.6432 132.143 23.6259 131.88 23.5923C131.614 23.5606 131.355 23.4887 131.111 23.3791C130.88 23.2765 130.68 23.1163 130.529 22.9139C130.368 22.6764 130.289 22.3929 130.303 22.1063C130.306 21.792 130.381 21.4826 130.523 21.2018C130.662 20.9119 130.824 20.6333 131.007 20.3684L135.369 14.2179H132.597C132.304 14.2179 132.017 14.205 131.737 14.1791C131.477 14.1533 131.223 14.0811 130.988 13.9659C130.771 13.8608 130.588 13.6975 130.458 13.4943C130.307 13.2434 130.235 12.9531 130.251 12.6609C130.236 12.3605 130.308 12.062 130.458 11.8016C130.587 11.5947 130.77 11.4272 130.988 11.3171C131.223 11.2017 131.477 11.1274 131.737 11.0974C132.023 11.0627 132.31 11.0454 132.597 11.0457Z" fill="#80D6FF"/>
<path d="M22.2848 29.8224C22.0668 29.9023 21.8312 29.9209 21.6036 29.8763C21.1402 29.5845 20.7059 29.2489 20.3066 28.874L20.3069 28.8737L20.2995 28.8679C19.0242 27.8788 17.497 27.2671 15.8915 27.1021C14.2859 26.9371 12.6662 27.2255 11.2164 27.9345L11.2163 27.9344L11.2127 27.9364C10.3028 28.4288 9.45687 29.031 8.69377 29.7294C8.438 29.8814 8.13393 29.9307 7.84304 29.867C7.549 29.8027 7.29089 29.628 7.12204 29.3789L7.11666 29.3709L7.10987 29.3642C6.55447 28.8104 5.99951 28.2582 5.44525 27.7067C3.78894 26.0586 2.13886 24.4167 0.502047 22.758L0.502405 22.7576L0.494673 22.7512C0.380452 22.6566 0.286747 22.5396 0.219287 22.4075C0.151828 22.2754 0.112032 22.131 0.102333 21.983C0.0926348 21.835 0.113237 21.6866 0.162881 21.5468C0.212408 21.4074 0.289803 21.2795 0.39035 21.1709C1.22585 20.3079 2.08895 19.4537 2.95528 18.5962C4.13105 17.4325 5.31278 16.2629 6.43956 15.0576L6.50445 14.9882L6.43845 14.9199C6.04684 14.5144 5.64615 14.1195 5.24651 13.7256C5.2198 13.6993 5.19309 13.6729 5.16639 13.6466C4.7399 13.2262 4.31528 12.8061 3.90274 12.3729L3.90301 12.3726L3.89646 12.3668C3.7804 12.2645 3.68745 12.1387 3.62379 11.9977C3.56012 11.8567 3.52719 11.7037 3.52719 11.549C3.52719 11.3943 3.56012 11.2414 3.62379 11.1004C3.68745 10.9594 3.7804 10.8336 3.89646 10.7312L3.89658 10.7314L3.90085 10.7271C7.23045 7.41421 10.5541 4.09534 13.8718 0.77052C13.9271 0.71944 13.9828 0.664234 14.0378 0.609764C14.0607 0.587072 14.0835 0.564508 14.1061 0.542423C14.1847 0.465493 14.263 0.391967 14.3449 0.327739C14.5083 0.199554 14.679 0.113946 14.88 0.113946H14.8885L14.8968 0.112533C15.1615 0.0675368 15.3904 0.147877 15.6047 0.289981C15.7894 0.412524 15.9557 0.575453 16.1208 0.737231C16.1502 0.765999 16.1795 0.79473 16.2089 0.823192C18.364 2.98973 20.5246 5.14579 22.685 7.30171C23.7651 8.37957 24.8452 9.45741 25.9245 10.5365L25.9244 10.5366L25.9293 10.541C26.1583 10.7417 26.353 11.0233 26.4355 11.3165C26.5172 11.6068 26.4882 11.9024 26.2818 12.1514C25.7512 12.7758 25.1674 13.3413 24.5798 13.9103C24.2399 14.2396 23.8986 14.57 23.5658 14.9138L23.498 14.9838L23.5662 15.0534C24.5085 16.0152 25.4615 16.9636 26.4138 17.9114L26.5729 18.0697C27.5783 19.0705 28.5824 20.0714 29.5731 21.0885L29.5737 21.0892C29.7827 21.3001 29.9 21.5849 29.9 21.8818C29.9 22.1787 29.7827 22.4636 29.5737 22.6745L29.5736 22.6745C28.3942 23.8663 27.2081 25.0497 26.0214 26.2337C24.9661 27.2866 23.9103 28.34 22.8582 29.4003L22.8577 29.3997L22.8502 29.4094C22.7042 29.5973 22.5083 29.7404 22.2848 29.8224ZM6.3432 11.5143L6.27035 11.5876L6.34605 11.658C6.9358 12.2063 7.47889 12.7666 8.03545 13.3408L8.04504 13.3507L8.11573 13.4236L8.18755 13.3518C8.56562 12.9738 8.93976 12.5962 9.31239 12.2201C10.1147 11.4103 10.91 10.6075 11.7225 9.82364C12.332 9.24235 13.0851 8.83346 13.9046 8.63886C14.7243 8.44424 15.581 8.47096 16.3869 8.71631L16.3885 8.71675C17.7531 9.10805 18.735 10.1862 19.6861 11.2303C19.7735 11.3262 19.8606 11.4218 19.9477 11.5166V11.616C19.8283 11.7418 19.7105 11.8796 19.5929 12.0172L19.5919 12.0184C19.4646 12.1673 19.3372 12.3163 19.2044 12.4553C18.9501 12.7215 18.6844 12.9413 18.3811 13.0452C18.0558 12.8008 17.7727 12.498 17.4831 12.1882C17.3678 12.0649 17.2515 11.9405 17.131 11.8181C16.7013 11.3818 16.2266 10.9826 15.5884 10.8269L15.5869 10.8266C15.1309 10.7225 14.6552 10.7448 14.211 10.891C13.7679 11.0369 13.3729 11.3005 13.0683 11.6536C9.67563 15.0454 6.28695 18.4372 2.90223 21.829L2.83214 21.8993L2.90183 21.9699C3.81559 22.8961 4.73957 23.8191 5.66359 24.742C6.4718 25.5493 7.28005 26.3566 8.0815 27.1662L8.14423 27.2296L8.21435 27.1745C10.149 25.6542 12.5384 24.8278 14.9991 24.8278C17.4598 24.8278 19.8492 25.6542 21.7838 27.1745L21.8536 27.2293L21.9164 27.1665L27.1019 21.9763L27.1727 21.9055L27.1017 21.8348C26.4765 21.2119 25.8526 20.5872 25.2285 19.9622C24.1358 18.8681 23.0424 17.7732 21.9397 16.6859L21.869 16.6162L21.7987 16.6864C21.4181 17.0669 21.0379 17.4519 20.6566 17.8379C19.8437 18.661 19.0258 19.4892 18.1878 20.2906C17.4789 20.9232 16.5987 21.3322 15.6579 21.466C14.7167 21.5998 13.7569 21.4522 12.8994 21.0418C12.3014 20.7516 11.7989 20.3147 11.3201 19.833C11.1421 19.654 10.9659 19.4671 10.7892 19.2796C10.52 18.9941 10.2496 18.7071 9.96969 18.4447C10.5153 17.8993 11.0323 17.3828 11.5675 16.8579C11.7905 17.0582 12.0036 17.2852 12.2192 17.5203C12.2529 17.5571 12.2867 17.5941 12.3206 17.6312C12.5245 17.8543 12.7321 18.0815 12.9501 18.2918C13.4595 18.7829 14.0391 19.1952 14.804 19.2731C15.9362 19.3979 16.8189 18.5785 17.4887 17.8439C19.536 15.7851 21.5893 13.7323 23.6486 11.6854L23.7178 11.6167L23.6508 11.5458C21.9299 9.72607 20.1505 7.9614 18.3747 6.20014C17.275 5.10949 16.1766 4.02015 15.0942 2.91985L15.0238 2.84833L14.9526 2.91892C12.0788 5.7642 9.20901 8.62932 6.3432 11.5143Z" fill="url(#paint0_linear_34_1787)" stroke="#BFEAFF" stroke-width="0.2"/>
<defs>
<linearGradient id="paint0_linear_34_1787" x1="0" y1="15.03" x2="30" y2="15.03" gradientUnits="userSpaceOnUse">
<stop stop-color="#0079B2"/>
<stop offset="0.81" stop-color="#80D6FF"/>
</linearGradient>
</defs>
</svg>
