<svg width="137" height="27" viewBox="0 0 137 27" fill="none" xmlns="http://www.w3.org/2000/svg">
<path d="M38.4819 4.08411C38.7074 4.08278 38.931 4.12444 39.1409 4.20686C39.3445 4.291 39.5323 4.40896 39.6966 4.55574C39.8648 4.70794 40.0067 4.88695 40.1165 5.08551C40.2362 5.28981 40.3214 5.51246 40.3685 5.74449L42.5395 15.7972H42.9659C43.3191 14.1605 43.6809 12.4872 44.0513 10.7773C44.4218 9.06741 44.7901 7.3898 45.1562 5.74449C45.2277 5.44084 45.3431 5.14921 45.4986 4.87877C45.6458 4.64437 45.8367 4.4404 46.0607 4.27793C46.3342 4.08589 46.6638 3.99042 46.9976 4.00658C47.2643 4.00121 47.5289 4.05413 47.7729 4.16164C47.9832 4.25924 48.1721 4.39759 48.3286 4.56866C48.4708 4.72539 48.5825 4.90723 48.6581 5.10489C48.7245 5.28494 48.7595 5.47507 48.7615 5.66696C48.7615 5.77033 48.7572 5.86724 48.7486 5.95769C48.7423 6.03831 48.7293 6.11827 48.7098 6.19673C48.6926 6.28288 48.6753 6.35825 48.6581 6.42286L45.2079 20.1323C45.0859 20.4121 44.9153 20.668 44.7039 20.8882C44.5056 21.0987 44.2743 21.2755 44.019 21.4115C43.6934 21.5771 43.331 21.6572 42.9659 21.6441H42.5395C42.1804 21.6589 41.8238 21.5787 41.5057 21.4115C41.2603 21.2777 41.0414 21.1004 40.8596 20.8882C40.6762 20.664 40.5359 20.4077 40.4461 20.1323L38.6822 12.7478H38.2557C37.9844 13.9409 37.6958 15.1727 37.39 16.4433C37.0841 17.7139 36.7934 18.9435 36.5177 20.1323C36.4114 20.4069 36.2608 20.6623 36.0719 20.8882C35.8863 21.0964 35.668 21.2732 35.4258 21.4115C35.1102 21.5793 34.7555 21.6596 34.3985 21.6441H33.972C33.6029 21.656 33.2366 21.5761 32.906 21.4115C32.643 21.2755 32.4032 21.0989 32.1952 20.8882C31.9771 20.6708 31.8018 20.4144 31.6784 20.1323L28.2734 6.42286C28.2541 6.34837 28.239 6.27288 28.2281 6.19673C28.2086 6.11827 28.1956 6.03831 28.1894 5.95769C28.1808 5.86724 28.1765 5.77033 28.1765 5.66696C28.1784 5.47507 28.2134 5.28494 28.2798 5.10489C28.3554 4.90723 28.4672 4.72539 28.6093 4.56866C28.7658 4.39759 28.9547 4.25924 29.165 4.16164C29.4091 4.05413 29.6737 4.00121 29.9403 4.00658C30.2739 3.99169 30.6032 4.08705 30.8772 4.27793C31.1013 4.4404 31.2921 4.64437 31.4393 4.87877C31.5945 5.14865 31.7078 5.44056 31.7753 5.74449L33.972 15.7972H34.3985C34.5579 15.0263 34.7301 14.2144 34.9154 13.3616C35.1006 12.5088 35.288 11.6473 35.4775 10.7773C35.667 9.90729 35.8565 9.04587 36.0461 8.19307C36.2356 7.34027 36.4165 6.52407 36.5888 5.74449C36.696 5.28984 36.9341 4.87656 37.2737 4.55574C37.5986 4.24564 38.0328 4.07617 38.4819 4.08411Z" fill="#BFEAFF"/>
<path d="M50.7633 16.9084V13.7814C50.7461 13.1128 50.8534 12.4468 51.0798 11.8174C51.2655 11.3209 51.5415 10.8631 51.8939 10.4671C52.2084 10.1227 52.5828 9.8381 52.9988 9.62724C53.3823 9.43445 53.7851 9.28286 54.2006 9.175C54.5623 9.07761 54.9321 9.01274 55.3054 8.98118C55.6457 8.95533 55.9127 8.94241 56.1066 8.94241C56.3004 8.94241 56.5653 8.95533 56.9013 8.98118C57.2641 9.01182 57.6232 9.07671 57.9738 9.175C58.3772 9.2818 58.7673 9.43349 59.1368 9.62724C59.5396 9.83821 59.8991 10.1231 60.1964 10.4671C60.5332 10.8675 60.7958 11.3247 60.9718 11.8174C61.1848 12.4497 61.2854 13.1144 61.269 13.7814V16.9084C61.2854 17.5754 61.1848 18.2401 60.9718 18.8724C60.7958 19.3651 60.5332 19.8223 60.1964 20.2227C59.9014 20.569 59.5414 20.8544 59.1368 21.0625C58.7666 21.2564 58.3767 21.4102 57.9738 21.5213C57.6226 21.6155 57.2637 21.6782 56.9013 21.7086C56.5653 21.7345 56.3004 21.7474 56.1066 21.7474C55.9127 21.7474 55.6457 21.7345 55.3054 21.7086C54.9325 21.6773 54.5629 21.6146 54.2006 21.5213C53.7856 21.4091 53.3829 21.2554 52.9988 21.0625C52.5809 20.8546 52.2061 20.5697 51.8939 20.2227C51.5415 19.8267 51.2655 19.3689 51.0798 18.8724C50.8534 18.243 50.7461 17.577 50.7633 16.9084ZM54.6464 13.2258V17.787C54.6497 18.0136 54.7096 18.2357 54.8208 18.4331C54.9253 18.6157 55.0742 18.7691 55.2537 18.8789C55.5137 19.0233 55.8096 19.0906 56.1066 19.0727C56.3911 19.0901 56.6745 19.0227 56.9207 18.8789C57.0946 18.7664 57.2387 18.6134 57.3406 18.4331C57.4439 18.2325 57.5034 18.0123 57.5151 17.787V13.2258C57.5005 12.9865 57.4414 12.7521 57.3406 12.5345C57.2353 12.3496 57.0922 12.1889 56.9207 12.0629C56.681 11.9018 56.3947 11.8246 56.1066 11.8432C55.8062 11.8241 55.5075 11.901 55.2537 12.0629C55.0764 12.1863 54.9286 12.3473 54.8208 12.5345C54.7122 12.7492 54.6526 12.9853 54.6464 13.2258Z" fill="white"/>
<path d="M71.3083 10.9387C71.3314 11.1983 71.3002 11.4598 71.2168 11.7068C71.1334 11.9537 70.9995 12.1805 70.8237 12.3729C70.4405 12.6956 69.9474 12.8576 69.4475 12.8252C69.3614 12.8252 69.2407 12.8316 69.0857 12.8446C68.9165 12.8604 68.7496 12.8951 68.5882 12.9479C68.4001 13.0047 68.2199 13.085 68.0519 13.187C67.8618 13.2981 67.6933 13.4426 67.5544 13.6134C67.3916 13.8168 67.2688 14.0491 67.1926 14.2982C67.0916 14.62 67.0436 14.956 67.0504 15.2931V18.8982C67.0508 19.2348 67.0336 19.5712 66.9988 19.906C66.9669 20.2102 66.8793 20.5058 66.7403 20.7782C66.6046 21.0344 66.4041 21.2504 66.1588 21.4049C65.8476 21.5785 65.4939 21.6613 65.138 21.6439C64.7901 21.6628 64.4443 21.5798 64.1429 21.4049C63.9022 21.2509 63.7079 21.0342 63.5808 20.7782C63.4459 20.5047 63.3606 20.2094 63.3289 19.906C63.2897 19.5715 63.2703 19.235 63.2707 18.8982V11.8432C63.2701 11.4999 63.2896 11.1569 63.3289 10.8159C63.3607 10.5085 63.4459 10.2089 63.5808 9.93083C63.7055 9.67319 63.9003 9.45597 64.1429 9.30415C64.4458 9.13364 64.7909 9.05297 65.138 9.07157C65.4904 9.04913 65.8398 9.14959 66.1265 9.35583C66.3607 9.54752 66.5373 9.80016 66.6369 10.0859C66.7491 10.4062 66.8122 10.7416 66.8243 11.0808C66.8415 11.4469 66.8501 11.8023 66.8501 12.1468H67.0504C67.1609 11.7046 67.3191 11.2757 67.5221 10.8676C67.69 10.5169 67.9052 10.1908 68.1617 9.89852C68.3751 9.65048 68.6311 9.44262 68.9177 9.28477C69.165 9.14779 69.4426 9.07452 69.7253 9.07157C69.9962 9.06382 70.2665 9.0987 70.5265 9.17494C70.7163 9.23932 70.8842 9.35573 71.0111 9.51089C71.1363 9.68272 71.2183 9.88216 71.2501 10.0923C71.2923 10.3724 71.3118 10.6555 71.3083 10.9387Z" fill="white"/>
<path d="M83.7463 6.88148V18.7949C83.7463 19.1481 83.7356 19.4948 83.714 19.835C83.694 20.1519 83.6174 20.4626 83.4879 20.7524C83.3616 21.0161 83.1648 21.2397 82.9193 21.3985C82.5966 21.5793 82.229 21.6644 81.8597 21.644C81.4837 21.6634 81.1093 21.5831 80.7742 21.4114C80.5356 21.2761 80.3372 21.0799 80.1992 20.8429C80.0722 20.6298 79.9928 20.3918 79.9666 20.1452C79.9392 19.9395 79.9241 19.7324 79.9214 19.5249C79.8385 19.7827 79.7303 20.0315 79.5983 20.2679C79.4587 20.5243 79.2775 20.7557 79.062 20.9527C78.8301 21.163 78.5634 21.3313 78.2738 21.4502C77.9307 21.5863 77.5638 21.6523 77.1948 21.644C76.7248 21.6425 76.2581 21.5662 75.8121 21.4179C75.3447 21.2632 74.9184 21.0048 74.5651 20.662C74.1698 20.2711 73.8635 19.7995 73.667 19.2794C73.4162 18.6109 73.2977 17.8999 73.3181 17.1862V13.5295C73.297 12.8114 73.4155 12.0962 73.667 11.4233C73.8625 10.9046 74.169 10.4349 74.5651 10.0472C74.9199 9.70774 75.3459 9.4517 75.8121 9.29776C76.2581 9.14944 76.7248 9.07311 77.1948 9.07164C77.5632 9.06357 77.9297 9.12721 78.2738 9.25899C78.5639 9.37405 78.8309 9.54037 79.062 9.75C79.2775 9.94702 79.4587 10.1784 79.5983 10.4348C79.732 10.6749 79.8403 10.9282 79.9214 11.1907V6.88148C79.9214 6.51969 79.9386 6.16435 79.9731 5.81548C80.0039 5.49543 80.0891 5.18299 80.225 4.89161C80.3576 4.62988 80.5586 4.40887 80.8065 4.25201C81.1275 4.07276 81.4925 3.98767 81.8597 4.0065C82.2123 3.98984 82.5622 4.07507 82.8676 4.25201C83.1127 4.41037 83.3112 4.63113 83.4427 4.89161C83.5786 5.18299 83.6638 5.49543 83.6946 5.81548C83.7291 6.16435 83.7463 6.51969 83.7463 6.88148ZM77.1948 13.8073V16.8567C77.1948 17.085 77.2034 17.3068 77.2206 17.5221C77.2342 17.7268 77.2823 17.9278 77.3628 18.1165C77.4308 18.2866 77.5477 18.4327 77.6988 18.5365C77.8788 18.6537 78.0916 18.7103 78.3061 18.698C78.5896 18.7103 78.8697 18.6335 79.1073 18.4783C79.3323 18.3023 79.5008 18.0642 79.5919 17.7935C79.7229 17.4201 79.8054 17.0314 79.8374 16.637C79.8848 16.1719 79.9128 15.6163 79.9214 14.9702C79.9183 14.6674 79.8946 14.3652 79.8503 14.0657C79.8057 13.7365 79.7234 13.4134 79.6048 13.1031C79.4971 12.8151 79.3298 12.553 79.1137 12.3343C79.0078 12.2292 78.8815 12.1469 78.7426 12.0925C78.6037 12.038 78.4552 12.0126 78.3061 12.0177C78.0916 12.0054 77.8788 12.062 77.6988 12.1792C77.5501 12.28 77.4335 12.4212 77.3628 12.5862C77.2818 12.768 77.2336 12.9627 77.2206 13.1612C77.2034 13.3723 77.1948 13.5876 77.1948 13.8073Z" fill="white"/>
<path d="M96.0518 4.08402C96.2773 4.08269 96.5009 4.12435 96.7108 4.20677C96.9144 4.29091 97.1022 4.40887 97.2665 4.55564C97.4347 4.70785 97.5766 4.88686 97.6864 5.08542C97.8061 5.28972 97.8912 5.51237 97.9384 5.7444L100.109 15.7971H100.536C100.889 14.1604 101.251 12.4871 101.621 10.7772C101.992 9.06731 102.36 7.38971 102.726 5.7444C102.798 5.44074 102.913 5.14911 103.069 4.87868C103.216 4.64428 103.407 4.44031 103.631 4.27784C103.904 4.0858 104.234 3.99033 104.567 4.00649C104.834 4.00112 105.099 4.05404 105.343 4.16155C105.553 4.25915 105.742 4.39749 105.898 4.56857C106.041 4.7253 106.152 4.90714 106.228 5.1048C106.294 5.28484 106.329 5.47497 106.331 5.66687C106.331 5.77024 106.327 5.86715 106.318 5.9576C106.312 6.03822 106.299 6.11818 106.28 6.19664C106.262 6.28279 106.245 6.35816 106.228 6.42277L102.778 20.1322C102.656 20.412 102.485 20.6679 102.274 20.8881C102.076 21.0986 101.844 21.2754 101.589 21.4114C101.263 21.577 100.901 21.6571 100.536 21.644H100.109C99.7503 21.6588 99.3937 21.5786 99.0756 21.4114C98.8302 21.2776 98.6113 21.1003 98.4295 20.8881C98.246 20.6639 98.1058 20.4076 98.0159 20.1322L96.2521 12.7477H95.8256C95.5543 13.9408 95.2657 15.1726 94.9598 16.4432C94.654 17.7138 94.3633 18.9435 94.0876 20.1322C93.9813 20.4068 93.8307 20.6622 93.6418 20.8881C93.4561 21.0963 93.2379 21.2731 92.9957 21.4114C92.6801 21.5792 92.3254 21.6595 91.9684 21.644H91.5419C91.1728 21.656 90.8065 21.576 90.4759 21.4114C90.2129 21.2754 89.9731 21.0988 89.7651 20.8881C89.547 20.6707 89.3717 20.4143 89.2482 20.1322L85.8433 6.42277C85.824 6.34828 85.8089 6.27279 85.798 6.19664C85.7785 6.11818 85.7655 6.03822 85.7593 5.9576C85.7506 5.86715 85.7463 5.77024 85.7463 5.66687C85.7483 5.47497 85.7833 5.28484 85.8497 5.1048C85.9253 4.90714 86.037 4.7253 86.1792 4.56857C86.3357 4.39749 86.5246 4.25915 86.7349 4.16155C86.979 4.05404 87.2436 4.00112 87.5102 4.00649C87.8438 3.9916 88.1731 4.08696 88.4471 4.27784C88.6712 4.44031 88.862 4.64428 89.0092 4.87868C89.1644 5.14856 89.2777 5.44047 89.3452 5.7444L91.5419 15.7971H91.9684C92.1277 15.0262 92.3 14.2143 92.4853 13.3615C92.6705 12.5087 92.8578 11.6473 93.0474 10.7772C93.2369 9.9072 93.4264 9.04578 93.6159 8.19298C93.8055 7.34017 93.9864 6.52398 94.1587 5.7444C94.2659 5.28975 94.504 4.87647 94.8435 4.55564C95.1685 4.24555 95.6026 4.07608 96.0518 4.08402Z" fill="#BFEAFF"/>
<path d="M118.837 13.5553V18.7949C118.837 19.1424 118.818 19.4897 118.779 19.835C118.75 20.1534 118.665 20.4642 118.527 20.7524C118.401 21.0161 118.204 21.2397 117.958 21.3985C117.644 21.5774 117.286 21.6626 116.925 21.644C116.561 21.663 116.201 21.5779 115.884 21.3985C115.631 21.2408 115.426 21.0176 115.29 20.7524C115.147 20.4646 115.055 20.1542 115.019 19.835C114.979 19.4897 114.96 19.1424 114.96 18.7949V13.8331C114.96 13.6134 114.952 13.3981 114.935 13.187C114.922 12.9885 114.873 12.7938 114.792 12.612C114.722 12.4472 114.608 12.3043 114.463 12.1986C114.279 12.0862 114.065 12.0321 113.849 12.0435C113.696 12.038 113.544 12.0652 113.403 12.1231C113.261 12.181 113.134 12.2684 113.029 12.3795C112.793 12.6423 112.623 12.9565 112.531 13.2969C112.399 13.7499 112.315 14.2154 112.279 14.6859C112.232 15.2157 112.208 15.7885 112.208 16.4044V18.7949C112.208 19.1422 112.191 19.4894 112.156 19.835C112.124 20.1535 112.036 20.4638 111.898 20.7524C111.764 21.0194 111.558 21.2433 111.303 21.3985C110.98 21.5782 110.613 21.6633 110.244 21.644C109.883 21.6626 109.524 21.5774 109.21 21.3985C108.964 21.2397 108.768 21.0161 108.641 20.7524C108.503 20.4642 108.418 20.1534 108.389 19.835C108.35 19.4897 108.331 19.1424 108.331 18.7949V6.85563C108.331 6.50809 108.35 6.16081 108.389 5.81547C108.418 5.49705 108.503 5.18632 108.641 4.89806C108.768 4.63437 108.964 4.41076 109.21 4.252C109.524 4.07313 109.883 3.98794 110.244 4.0065C110.613 3.98721 110.98 4.07229 111.303 4.252C111.558 4.40717 111.764 4.63109 111.898 4.89806C112.036 5.18666 112.124 5.49705 112.156 5.81547C112.191 6.1611 112.208 6.50826 112.208 6.85563V11.1649C112.291 10.9063 112.402 10.6572 112.537 10.4219C112.683 10.1639 112.871 9.93238 113.093 9.73707C113.331 9.52855 113.602 9.36049 113.894 9.2396C114.233 9.10421 114.596 9.0383 114.96 9.04578C115.433 9.04772 115.902 9.12627 116.35 9.27837C116.817 9.43507 117.244 9.69571 117.597 10.0407C117.991 10.4373 118.297 10.9129 118.495 11.4362C118.741 12.1148 118.857 12.8337 118.837 13.5553Z" fill="white"/>
<path d="M120.839 18.8207V11.8691C120.839 11.5237 120.858 11.1785 120.897 10.8354C120.93 10.5211 121.017 10.2149 121.156 9.93086C121.288 9.66913 121.489 9.44812 121.737 9.29126C122.047 9.11231 122.401 9.02702 122.758 9.04576C123.115 9.02813 123.469 9.11334 123.779 9.29126C124.024 9.44962 124.223 9.67039 124.354 9.93086C124.496 10.2134 124.584 10.5203 124.613 10.8354C124.652 11.1785 124.671 11.5237 124.671 11.8691V18.8207C124.671 19.1682 124.652 19.5155 124.613 19.8608C124.585 20.1761 124.498 20.4832 124.354 20.7653C124.225 21.0274 124.026 21.2488 123.779 21.4049C123.468 21.5785 123.114 21.6614 122.758 21.644C122.402 21.6624 122.048 21.5796 121.737 21.4049C121.487 21.2503 121.286 21.0287 121.156 20.7653C121.016 20.4817 120.929 20.1754 120.897 19.8608C120.858 19.5155 120.839 19.1682 120.839 18.8207ZM124.697 5.91881C124.718 6.18184 124.684 6.44645 124.598 6.69568C124.511 6.9449 124.373 7.17323 124.193 7.36599C123.802 7.69987 123.297 7.86897 122.784 7.83762C122.269 7.86964 121.762 7.70056 121.369 7.36599C121.189 7.17323 121.051 6.9449 120.964 6.69568C120.877 6.44645 120.844 6.18184 120.865 5.91881C120.84 5.6536 120.873 5.38619 120.96 5.13442C121.046 4.88264 121.186 4.65228 121.369 4.45871C121.767 4.13594 122.272 3.97453 122.784 4.00647C123.305 3.96464 123.821 4.1268 124.225 4.45871C124.398 4.65754 124.529 4.88945 124.61 5.14042C124.691 5.39139 124.721 5.65619 124.697 5.91881Z" fill="white"/>
<path d="M129.052 9.04572H134.04C134.298 9.04742 134.555 9.06902 134.809 9.11033C135.074 9.14864 135.331 9.22707 135.572 9.34291C135.801 9.45263 136.001 9.61673 136.153 9.821C136.315 10.051 136.397 10.328 136.386 10.6092C136.385 10.7542 136.361 10.8982 136.315 11.0356C136.269 11.1838 136.213 11.3284 136.147 11.4685C136.078 11.6192 136.004 11.7656 135.927 11.9078C135.849 12.0499 135.776 12.1877 135.707 12.3213L131.32 18.4459H134.092C134.381 18.4457 134.67 18.4608 134.958 18.4912C135.218 18.5116 135.473 18.5818 135.707 18.6979C135.924 18.8066 136.107 18.9718 136.237 19.176C136.383 19.4357 136.452 19.7313 136.437 20.0288C136.451 20.3261 136.382 20.6214 136.237 20.8816C136.107 21.0895 135.924 21.259 135.707 21.3726C135.472 21.4891 135.218 21.5635 134.958 21.5923C134.67 21.6269 134.381 21.6442 134.092 21.6439H129.13C128.864 21.6432 128.599 21.6259 128.335 21.5923C128.069 21.5606 127.81 21.4887 127.566 21.3791C127.336 21.2765 127.135 21.1163 126.985 20.9139C126.824 20.6764 126.744 20.3929 126.759 20.1063C126.762 19.792 126.837 19.4825 126.978 19.2018C127.118 18.9119 127.28 18.6333 127.463 18.3684L131.824 12.2179H129.052C128.759 12.2179 128.473 12.205 128.193 12.1791C127.932 12.1533 127.679 12.0811 127.443 11.9659C127.227 11.8608 127.043 11.6975 126.914 11.4943C126.763 11.2434 126.691 10.9531 126.707 10.6609C126.691 10.3605 126.763 10.062 126.914 9.80161C127.043 9.59472 127.226 9.42714 127.443 9.31707C127.679 9.20168 127.932 9.12739 128.193 9.09741C128.478 9.06264 128.765 9.04538 129.052 9.04572Z" fill="white"/>
<path d="M12.1245 0.613526C12.3964 0.362559 12.6632 0.0122509 13.0711 0.0122509C13.5941 -0.0766332 13.9654 0.336417 14.3001 0.660582C17.1398 3.51533 19.99 6.34917 22.835 9.19346C23.2586 9.56468 23.562 10.2392 23.154 10.7306C22.4166 11.5986 21.5537 12.3462 20.764 13.1619C22.5108 14.9448 24.2993 16.6754 26.0409 18.4636C26.2408 18.6653 26.3529 18.9377 26.3529 19.2217C26.3529 19.5056 26.2408 19.7781 26.0409 19.9798C24.0849 21.9562 22.1029 23.9116 20.1417 25.888C20.0033 26.0661 19.8177 26.2017 19.6059 26.2794C19.3942 26.357 19.1648 26.3736 18.9441 26.3272C18.5272 26.0659 18.1366 25.7647 17.7779 25.4279C16.6706 24.5691 15.3446 24.038 13.9506 23.8947C12.5565 23.7515 11.1503 24.0019 9.8914 24.6175C9.09587 25.048 8.3564 25.5748 7.68967 26.186C7.44424 26.3346 7.1511 26.3833 6.87081 26.322C6.59051 26.2607 6.34447 26.0941 6.18351 25.8566C4.23804 23.9169 2.29781 21.998 0.378488 20.053C0.268953 19.9622 0.179091 19.8501 0.114397 19.7234C0.0497034 19.5967 0.0115388 19.4582 0.00223775 19.3163C-0.0070633 19.1743 0.0126947 19.032 0.0603032 18.898C0.107912 18.7639 0.18237 18.641 0.279123 18.5368C2.0154 16.7434 3.87196 15.0075 5.59255 13.1671C4.86038 12.409 4.09161 11.6927 3.36467 10.9293C3.25338 10.8312 3.16424 10.7105 3.10319 10.5753C3.04213 10.4401 3.01055 10.2934 3.01055 10.145C3.01055 9.99668 3.04213 9.85002 3.10319 9.7148C3.16424 9.57959 3.25338 9.4589 3.36467 9.36077C6.28985 6.45025 9.20979 3.5345 12.1245 0.613526ZM5.63438 10.1764C6.15736 10.6627 6.6385 11.1594 7.13009 11.6665C8.17604 10.6208 9.19061 9.57514 10.2366 8.56604C10.7833 8.04455 11.4588 7.67774 12.194 7.50318C12.9291 7.32862 13.6975 7.35259 14.4204 7.57263C15.7696 7.95954 16.7005 9.09412 17.6105 10.0823V10.2392C17.166 10.6993 16.7424 11.3737 16.1305 11.5567C15.2833 10.9398 14.7446 9.85748 13.6725 9.59605C13.2875 9.5082 12.8859 9.52702 12.5108 9.65048C12.1357 9.77393 11.8015 9.99735 11.544 10.2967C8.56304 13.2769 5.58557 16.2571 2.61159 19.2374C4.11776 20.7641 5.65007 22.2751 7.16147 23.8018C8.87641 22.4543 10.9944 21.7217 13.1757 21.7217C15.3569 21.7217 17.4749 22.4543 19.1899 23.8018L23.745 19.2426C22.2336 17.7368 20.7327 16.2205 19.2108 14.72C18.1649 15.7657 17.1189 16.8532 16.0364 17.8884C15.4005 18.4563 14.6108 18.8233 13.7668 18.9433C12.9227 19.0634 12.0619 18.931 11.293 18.5629C10.2156 18.04 9.49394 16.9944 8.63103 16.2049C9.154 15.682 9.6456 15.1905 10.1581 14.6886C11.0472 15.4572 11.727 16.712 13.0136 16.8427C13.9601 16.9473 14.708 16.2624 15.299 15.614C17.098 13.805 18.9023 12.0012 20.7117 10.2026C18.2642 7.61446 15.686 5.15707 13.1966 2.62649C10.6724 5.1257 8.15164 7.64235 5.63438 10.1764Z" fill="url(#paint0_linear_34_1039)"/>
<defs>
<linearGradient id="paint0_linear_34_1039" x1="2.5" y1="8" x2="26.5" y2="21" gradientUnits="userSpaceOnUse">
<stop stop-color="#BFEAFF"/>
<stop offset="0.95" stop-color="#80D6FF"/>
</linearGradient>
</defs>
</svg>
