<svg width="241" height="241" viewBox="0 0 241 241" fill="none" xmlns="http://www.w3.org/2000/svg">
<path d="M179.126 239.858C177.305 240.526 175.335 240.676 173.435 240.293C169.678 237.931 166.157 235.213 162.922 232.176L162.905 232.16L162.887 232.145C152.686 224.234 140.472 219.341 127.631 218.022C114.789 216.702 101.834 219.009 90.2381 224.68L90.2288 224.684L90.2198 224.689C82.9232 228.638 76.1398 233.468 70.0219 239.071C67.8957 240.344 65.3632 240.758 62.941 240.228C60.5028 239.695 58.3627 238.246 56.9626 236.181L56.9357 236.141L56.9018 236.107C52.4409 231.659 47.9833 227.224 43.5312 222.794C30.2249 209.553 16.9676 196.362 3.8172 183.035L3.79962 183.018L3.78033 183.002C2.83099 182.215 2.05216 181.243 1.49146 180.145C0.93077 179.047 0.600005 177.846 0.519394 176.616C0.438784 175.386 0.610022 174.153 1.02264 172.991C1.43467 171.831 2.07875 170.767 2.91557 169.864C9.63959 162.919 16.5765 156.053 23.5368 149.165C32.9758 139.823 42.4578 130.438 51.5096 120.756L51.834 120.409L51.504 120.067C48.3609 116.812 45.1446 113.642 41.9337 110.478C41.7192 110.267 41.5048 110.055 41.2904 109.844C37.8645 106.467 34.4501 103.089 31.1323 99.6048L31.1173 99.589L31.1009 99.5745C30.1363 98.724 29.3638 97.6781 28.8346 96.5061C28.3055 95.3342 28.0318 94.0631 28.0318 92.7773C28.0318 91.4915 28.3055 90.2205 28.8346 89.0485C29.3638 87.8766 30.1363 86.8306 31.1009 85.9801L31.1122 85.9702L31.1229 85.9595C57.8719 59.3445 84.573 32.6818 111.226 5.97115C111.668 5.56348 112.111 5.12455 112.553 4.68713C112.738 4.50391 112.922 4.32096 113.107 4.14067C113.74 3.52075 114.379 2.92067 115.05 2.39416C116.391 1.34249 117.827 0.612036 119.536 0.612036H119.578L119.62 0.604967C121.847 0.226524 123.763 0.908072 125.525 2.07673C127.036 3.07856 128.395 4.41093 129.721 5.70998C129.956 5.94078 130.19 6.17053 130.424 6.39718C147.737 23.8015 165.093 41.1214 182.449 58.4405C191.126 67.0999 199.803 75.7591 208.475 84.4286L208.486 84.4402L208.499 84.451C210.375 86.0955 211.976 88.4065 212.657 90.8268C213.335 93.2334 213.099 95.7183 211.362 97.8116C207.092 102.837 202.381 107.4 197.652 111.981C194.923 114.624 192.189 117.272 189.53 120.019L189.191 120.369L189.532 120.716C197.101 128.442 204.755 136.06 212.406 143.674L213.683 144.945C221.76 152.984 229.828 161.027 237.788 169.2L237.791 169.203C239.526 170.954 240.5 173.319 240.5 175.784C240.5 178.249 239.526 180.614 237.791 182.365L237.791 182.365C228.318 191.937 218.787 201.447 209.251 210.961C200.773 219.42 192.29 227.883 183.843 236.396L183.821 236.417L183.803 236.441C182.595 237.996 180.974 239.18 179.126 239.858ZM51.1722 92.7118L50.808 93.0785L51.1865 93.4304C55.9299 97.8407 60.2974 102.346 64.7668 106.957L64.8463 107.039L65.1997 107.404L65.5588 107.045C68.5938 104.011 71.5981 100.978 74.591 97.9576C81.0377 91.4505 87.4308 84.9976 93.9605 78.698C98.8957 73.9907 104.994 70.6795 111.63 69.1037C118.267 67.5278 125.204 67.7442 131.73 69.7308L131.738 69.733C142.788 72.9016 150.736 81.6294 158.364 90.0068C159.095 90.809 159.823 91.608 160.55 92.3986V93.4368C159.569 94.4635 158.6 95.5962 157.627 96.7356L157.616 96.7483C156.595 97.9422 155.568 99.1447 154.495 100.268C152.4 102.46 150.178 104.298 147.607 105.135C144.916 103.137 142.578 100.636 140.207 98.0992C139.285 97.113 138.358 96.1214 137.403 95.1519C133.961 91.657 130.197 88.5005 125.155 87.2709L125.148 87.2693C121.538 86.4457 117.773 86.6221 114.256 87.7795C110.746 88.935 107.616 91.0245 105.204 93.8236C77.9473 121.074 50.7224 148.324 23.5293 175.574L23.1789 175.925L23.5273 176.279C30.87 183.721 38.2895 191.132 45.7102 198.545C52.2017 205.029 58.6942 211.514 65.1369 218.022L65.4506 218.338L65.8012 218.063C81.3964 205.809 100.657 199.147 120.493 199.147C140.328 199.147 159.589 205.809 175.184 218.063L175.533 218.337L175.847 218.023L217.504 176.329L217.858 175.974L217.503 175.621C212.479 170.616 207.467 165.597 202.453 160.576C193.676 151.787 184.894 142.993 176.036 134.259L175.682 133.911L175.331 134.262C172.276 137.316 169.224 140.407 166.161 143.507C159.628 150.123 153.051 156.782 146.315 163.224C140.575 168.348 133.447 171.66 125.828 172.744C118.207 173.827 110.436 172.632 103.494 169.309C98.6434 166.956 94.5776 163.417 90.7226 159.539C89.2804 158.088 87.8601 156.581 86.4388 155.073C84.2095 152.708 81.9774 150.34 79.6533 148.18C84.1869 143.648 88.4702 139.368 92.9161 135.01C94.797 136.676 96.5843 138.579 98.3841 140.542C98.6559 140.838 98.9279 141.136 99.2007 141.434C100.839 143.227 102.499 145.044 104.243 146.726C108.316 150.653 112.912 153.91 118.957 154.525C127.887 155.511 134.883 149.048 140.273 143.137C156.722 126.596 173.219 110.103 189.763 93.6579L190.109 93.3141L189.774 92.9597C175.952 78.3436 161.665 64.1749 147.403 50.0295C138.568 41.2672 129.742 32.5139 121.041 23.6689L120.689 23.3113L120.332 23.6642C97.247 46.5207 74.1937 69.5366 51.1722 92.7118Z" fill="url(#paint0_linear_34_870)" stroke="#BFEAFF"/>
<defs>
<linearGradient id="paint0_linear_34_870" x1="0" y1="120.741" x2="241" y2="120.741" gradientUnits="userSpaceOnUse">
<stop stop-color="#0079B2"/>
<stop offset="0.49" stop-color="#80D6FF"/>
<stop offset="0.99" stop-color="#BFEAFF"/>
</linearGradient>
</defs>
</svg>
