<svg width="238" height="180" viewBox="0 0 238 180" fill="none" xmlns="http://www.w3.org/2000/svg">
<rect x="0.5" y="130.5" width="237" height="49" rx="11.5" fill="white" stroke="#BFEAFF"/>
<path d="M35.5962 138.16C36.025 138.157 36.4503 138.237 36.8494 138.393C37.2365 138.553 37.5937 138.778 37.906 139.057C38.226 139.346 38.4958 139.687 38.7046 140.064C38.9322 140.453 39.0941 140.876 39.1837 141.317L43.3119 160.433H44.1227C44.7944 157.321 45.4824 154.139 46.1868 150.887C46.8912 147.636 47.5915 144.446 48.2877 141.317C48.4238 140.74 48.6431 140.185 48.9389 139.671C49.2188 139.225 49.5816 138.837 50.0077 138.528C50.5277 138.163 51.1546 137.982 51.7892 138.013C52.2963 138.002 52.7994 138.103 53.2635 138.307C53.6635 138.493 54.0226 138.756 54.3201 139.081C54.5905 139.379 54.803 139.725 54.9467 140.101C55.073 140.443 55.1395 140.805 55.1433 141.17C55.1433 141.366 55.1351 141.551 55.1187 141.723C55.1068 141.876 55.0822 142.028 55.045 142.177C55.0123 142.341 54.9795 142.484 54.9467 142.607L48.386 168.676C48.1541 169.208 47.8297 169.695 47.4277 170.114C47.0506 170.514 46.6107 170.85 46.1254 171.109C45.5062 171.424 44.817 171.576 44.1227 171.551H43.3119C42.6291 171.579 41.951 171.427 41.3461 171.109C40.8795 170.854 40.4632 170.517 40.1175 170.114C39.7687 169.687 39.5021 169.2 39.3312 168.676L35.9771 154.634H35.1662C34.6502 156.903 34.1014 159.245 33.5199 161.661C32.9383 164.078 32.3855 166.416 31.8613 168.676C31.6592 169.198 31.3728 169.684 31.0135 170.114C30.6605 170.51 30.2456 170.846 29.7849 171.109C29.1849 171.428 28.5104 171.58 27.8315 171.551H27.0206C26.3186 171.574 25.622 171.422 24.9934 171.109C24.4934 170.85 24.0373 170.514 23.6419 170.114C23.2272 169.7 22.8938 169.213 22.659 168.676L16.1843 142.607C16.1477 142.466 16.119 142.322 16.0983 142.177C16.0611 142.028 16.0365 141.876 16.0246 141.723C16.0082 141.551 16 141.366 16 141.17C16.0038 140.805 16.0703 140.443 16.1966 140.101C16.3403 139.725 16.5528 139.379 16.8232 139.081C17.1207 138.756 17.4799 138.493 17.8798 138.307C18.3439 138.103 18.847 138.002 19.3541 138.013C19.9885 137.984 20.6145 138.166 21.1356 138.528C21.5617 138.837 21.9245 139.225 22.2044 139.671C22.4996 140.184 22.715 140.739 22.8433 141.317L27.0206 160.433H27.8315C28.1345 158.967 28.4621 157.423 28.8143 155.801C29.1665 154.18 29.5228 152.542 29.8832 150.887C30.2436 149.233 30.604 147.595 30.9644 145.973C31.3248 144.352 31.6688 142.8 31.9964 141.317C32.2003 140.453 32.6531 139.667 33.2987 139.057C33.9167 138.467 34.7422 138.145 35.5962 138.16Z" fill="#0079B2"/>
<path d="M58.828 162.546V156.6C58.7953 155.328 58.9994 154.062 59.43 152.865C59.7829 151.921 60.3078 151.05 60.978 150.297C61.576 149.642 62.2878 149.101 63.0789 148.7C63.8081 148.334 64.5742 148.046 65.3641 147.84C66.0521 147.655 66.7552 147.532 67.465 147.472C68.1121 147.423 68.6199 147.398 68.9885 147.398C69.3571 147.398 69.8608 147.423 70.4997 147.472C71.1896 147.53 71.8725 147.654 72.5392 147.84C73.3062 148.044 74.048 148.332 74.7507 148.7C75.5166 149.102 76.2002 149.643 76.7656 150.297C77.406 151.059 77.9053 151.928 78.2399 152.865C78.645 154.067 78.8362 155.331 78.8051 156.6V162.546C78.8362 163.814 78.645 165.078 78.2399 166.28C77.9053 167.217 77.406 168.087 76.7656 168.848C76.2045 169.507 75.52 170.049 74.7507 170.445C74.0467 170.814 73.3053 171.106 72.5392 171.317C71.8713 171.497 71.1888 171.616 70.4997 171.674C69.8608 171.723 69.3571 171.747 68.9885 171.747C68.6199 171.747 68.1121 171.723 67.465 171.674C66.756 171.614 66.0532 171.495 65.3641 171.317C64.575 171.104 63.8094 170.812 63.0789 170.445C62.2844 170.05 61.5716 169.508 60.978 168.848C60.3078 168.095 59.7829 167.225 59.43 166.28C58.9994 165.084 58.7953 163.817 58.828 162.546ZM66.2119 155.543V164.217C66.2181 164.647 66.3322 165.07 66.5436 165.445C66.7423 165.792 67.0254 166.084 67.3668 166.293C67.8612 166.568 68.4239 166.695 68.9885 166.661C69.5297 166.695 70.0685 166.566 70.5366 166.293C70.8673 166.079 71.1413 165.788 71.3352 165.445C71.5316 165.064 71.6446 164.645 71.6669 164.217V155.543C71.6392 155.088 71.5267 154.642 71.3352 154.229C71.1348 153.877 70.8627 153.572 70.5366 153.332C70.0808 153.026 69.5365 152.879 68.9885 152.914C68.4173 152.878 67.8493 153.024 67.3668 153.332C67.0297 153.567 66.7486 153.873 66.5436 154.229C66.3371 154.637 66.2238 155.086 66.2119 155.543Z" fill="#80D6FF"/>
<path d="M97.7746 151.194C97.8185 151.688 97.7593 152.185 97.6006 152.655C97.442 153.124 97.1874 153.556 96.8531 153.922C96.1244 154.535 95.1868 154.843 94.2362 154.781C94.0724 154.781 93.843 154.794 93.5482 154.818C93.2265 154.848 92.9092 154.914 92.6022 155.015C92.2445 155.123 91.9018 155.276 91.5824 155.469C91.221 155.681 90.9006 155.955 90.6364 156.28C90.3268 156.667 90.0934 157.109 89.9484 157.582C89.7564 158.194 89.6651 158.833 89.6781 159.474V166.33C89.6788 166.97 89.646 167.609 89.5798 168.246C89.5193 168.824 89.3527 169.387 89.0883 169.905C88.8303 170.392 88.449 170.802 87.9826 171.096C87.3908 171.426 86.7183 171.584 86.0414 171.551C85.3799 171.587 84.7223 171.429 84.1494 171.096C83.6915 170.803 83.3221 170.391 83.0805 169.905C82.8239 169.384 82.6617 168.823 82.6013 168.246C82.5268 167.61 82.4899 166.97 82.4907 166.33V152.914C82.4897 152.261 82.5266 151.609 82.6013 150.961C82.6618 150.376 82.824 149.807 83.0805 149.278C83.3175 148.788 83.688 148.375 84.1494 148.086C84.7252 147.762 85.3815 147.608 86.0414 147.644C86.7117 147.601 87.376 147.792 87.9212 148.184C88.3664 148.549 88.7023 149.029 88.8918 149.573C89.105 150.182 89.2251 150.82 89.2481 151.464C89.2808 152.161 89.2972 152.836 89.2972 153.492H89.6781C89.8882 152.651 90.1889 151.835 90.575 151.059C90.8942 150.392 91.3035 149.772 91.7913 149.216C92.197 148.745 92.6838 148.349 93.2287 148.049C93.6991 147.789 94.2269 147.649 94.7645 147.644C95.2795 147.629 95.7936 147.695 96.288 147.84C96.6489 147.963 96.9682 148.184 97.2094 148.479C97.4475 148.806 97.6034 149.185 97.664 149.585C97.7442 150.117 97.7812 150.656 97.7746 151.194Z" fill="#80D6FF"/>
<path d="M121.298 143.479V166.133C121.298 166.805 121.277 167.464 121.236 168.111C121.198 168.714 121.052 169.304 120.806 169.855C120.566 170.357 120.192 170.782 119.725 171.084C119.111 171.428 118.412 171.59 117.71 171.551C116.995 171.588 116.283 171.435 115.646 171.109C115.192 170.851 114.815 170.478 114.553 170.027C114.311 169.622 114.16 169.17 114.11 168.701C114.058 168.31 114.03 167.916 114.024 167.521C113.867 168.011 113.661 168.485 113.41 168.934C113.144 169.422 112.8 169.862 112.39 170.236C111.949 170.636 111.442 170.956 110.891 171.182C110.239 171.441 109.541 171.567 108.84 171.551C107.946 171.548 107.058 171.403 106.21 171.121C105.322 170.827 104.511 170.335 103.839 169.684C103.088 168.94 102.505 168.043 102.131 167.054C101.654 165.783 101.429 164.431 101.468 163.074V156.121C101.428 154.755 101.653 153.395 102.131 152.116C102.503 151.129 103.086 150.236 103.839 149.499C104.514 148.853 105.324 148.367 106.21 148.074C107.058 147.792 107.946 147.647 108.84 147.644C109.54 147.629 110.237 147.75 110.891 148C111.443 148.219 111.951 148.535 112.39 148.934C112.8 149.308 113.144 149.749 113.41 150.236C113.664 150.693 113.87 151.174 114.024 151.673V143.479C114.024 142.791 114.057 142.116 114.123 141.452C114.181 140.844 114.343 140.249 114.602 139.695C114.854 139.198 115.236 138.777 115.707 138.479C116.318 138.138 117.012 137.977 117.71 138.012C118.381 137.981 119.046 138.143 119.627 138.479C120.093 138.78 120.47 139.2 120.72 139.695C120.979 140.249 121.141 140.844 121.199 141.452C121.265 142.116 121.298 142.791 121.298 143.479ZM108.84 156.649V162.448C108.84 162.882 108.856 163.303 108.889 163.713C108.915 164.102 109.006 164.484 109.159 164.843C109.288 165.167 109.511 165.444 109.798 165.642C110.14 165.865 110.545 165.972 110.953 165.949C111.492 165.972 112.025 165.826 112.476 165.531C112.904 165.197 113.225 164.744 113.398 164.229C113.647 163.519 113.804 162.78 113.865 162.03C113.955 161.145 114.008 160.089 114.024 158.86C114.018 158.285 113.973 157.71 113.889 157.14C113.804 156.514 113.648 155.9 113.422 155.31C113.218 154.762 112.899 154.264 112.489 153.848C112.287 153.648 112.047 153.492 111.783 153.388C111.519 153.285 111.236 153.236 110.953 153.246C110.545 153.223 110.14 153.33 109.798 153.553C109.515 153.745 109.294 154.013 109.159 154.327C109.005 154.673 108.913 155.043 108.889 155.42C108.856 155.822 108.84 156.231 108.84 156.649Z" fill="#80D6FF"/>
<path d="M144.586 138.16C145.014 138.157 145.44 138.236 145.839 138.393C146.226 138.553 146.583 138.777 146.896 139.057C147.215 139.346 147.485 139.686 147.694 140.064C147.922 140.452 148.084 140.876 148.173 141.317L152.301 160.433H153.112C153.784 157.32 154.472 154.139 155.176 150.887C155.881 147.636 156.581 144.446 157.277 141.317C157.413 140.74 157.633 140.185 157.928 139.671C158.208 139.225 158.571 138.837 158.997 138.528C159.517 138.163 160.144 137.982 160.779 138.012C161.286 138.002 161.789 138.103 162.253 138.307C162.653 138.493 163.012 138.756 163.31 139.081C163.58 139.379 163.793 139.725 163.936 140.101C164.063 140.443 164.129 140.805 164.133 141.17C164.133 141.366 164.125 141.55 164.108 141.722C164.096 141.876 164.072 142.028 164.035 142.177C164.002 142.341 163.969 142.484 163.936 142.607L157.375 168.676C157.144 169.208 156.819 169.695 156.417 170.113C156.04 170.514 155.6 170.85 155.115 171.109C154.496 171.423 153.806 171.576 153.112 171.551H152.301C151.619 171.579 150.94 171.426 150.336 171.109C149.869 170.854 149.453 170.517 149.107 170.113C148.758 169.687 148.492 169.2 148.321 168.676L144.967 154.634H144.156C143.64 156.903 143.091 159.245 142.509 161.661C141.928 164.077 141.375 166.416 140.851 168.676C140.649 169.198 140.362 169.684 140.003 170.113C139.65 170.509 139.235 170.845 138.774 171.109C138.174 171.428 137.5 171.58 136.821 171.551H136.01C135.308 171.574 134.612 171.422 133.983 171.109C133.483 170.85 133.027 170.514 132.631 170.113C132.217 169.7 131.883 169.213 131.649 168.676L125.174 142.607C125.137 142.465 125.109 142.322 125.088 142.177C125.051 142.028 125.026 141.876 125.014 141.722C124.998 141.55 124.99 141.366 124.99 141.17C124.993 140.805 125.06 140.443 125.186 140.101C125.33 139.725 125.542 139.379 125.813 139.081C126.11 138.756 126.469 138.493 126.869 138.307C127.333 138.103 127.837 138.002 128.344 138.012C128.978 137.984 129.604 138.165 130.125 138.528C130.551 138.837 130.914 139.225 131.194 139.671C131.489 140.184 131.705 140.739 131.833 141.317L136.01 160.433H136.821C137.124 158.967 137.452 157.423 137.804 155.801C138.156 154.18 138.512 152.542 138.873 150.887C139.233 149.233 139.594 147.595 139.954 145.973C140.314 144.351 140.658 142.799 140.986 141.317C141.19 140.452 141.643 139.667 142.288 139.057C142.906 138.467 143.732 138.145 144.586 138.16Z" fill="#0079B2"/>
<path d="M187.795 156.17V166.133C187.796 166.794 187.759 167.454 187.685 168.111C187.631 168.716 187.469 169.307 187.206 169.855C186.966 170.357 186.591 170.782 186.125 171.084C185.527 171.424 184.845 171.586 184.159 171.551C183.468 171.587 182.782 171.425 182.181 171.084C181.7 170.784 181.309 170.36 181.05 169.855C180.779 169.308 180.604 168.718 180.534 168.111C180.46 167.454 180.423 166.794 180.424 166.133V156.698C180.424 156.28 180.407 155.871 180.375 155.47C180.35 155.092 180.258 154.722 180.104 154.376C179.97 154.063 179.753 153.791 179.478 153.59C179.127 153.376 178.721 153.273 178.311 153.295C178.02 153.285 177.731 153.336 177.462 153.446C177.193 153.557 176.95 153.723 176.75 153.934C176.303 154.434 175.979 155.031 175.804 155.678C175.553 156.54 175.393 157.425 175.325 158.32C175.235 159.327 175.19 160.416 175.19 161.588V166.133C175.191 166.794 175.158 167.454 175.092 168.111C175.03 168.716 174.864 169.307 174.6 169.855C174.347 170.363 173.955 170.789 173.47 171.084C172.855 171.426 172.157 171.587 171.455 171.551C170.769 171.586 170.086 171.424 169.489 171.084C169.022 170.782 168.648 170.357 168.408 169.855C168.145 169.307 167.983 168.716 167.929 168.111C167.855 167.454 167.818 166.794 167.818 166.133V143.43C167.818 142.769 167.855 142.109 167.929 141.452C167.983 140.847 168.145 140.256 168.408 139.708C168.648 139.206 169.022 138.781 169.489 138.479C170.086 138.139 170.769 137.977 171.455 138.012C172.157 137.976 172.855 138.137 173.47 138.479C173.955 138.774 174.347 139.2 174.6 139.708C174.864 140.256 175.03 140.847 175.092 141.452C175.158 142.109 175.191 142.77 175.19 143.43V151.624C175.348 151.133 175.558 150.659 175.817 150.211C176.093 149.721 176.45 149.281 176.873 148.909C177.326 148.513 177.84 148.193 178.397 147.963C179.041 147.706 179.73 147.581 180.424 147.595C181.322 147.598 182.215 147.748 183.065 148.037C183.955 148.335 184.766 148.831 185.437 149.487C186.187 150.241 186.769 151.145 187.144 152.14C187.612 153.431 187.833 154.798 187.795 156.17Z" fill="#80D6FF"/>
<path d="M191.478 166.182V152.963C191.477 152.307 191.514 151.65 191.588 150.998C191.65 150.4 191.817 149.818 192.08 149.278C192.332 148.78 192.714 148.36 193.186 148.062C193.774 147.721 194.448 147.559 195.127 147.595C195.805 147.561 196.479 147.723 197.068 148.062C197.534 148.363 197.912 148.782 198.162 149.278C198.432 149.815 198.599 150.399 198.653 150.998C198.727 151.65 198.764 152.307 198.764 152.963V166.182C198.764 166.843 198.727 167.503 198.653 168.16C198.601 168.76 198.434 169.344 198.162 169.88C197.916 170.378 197.538 170.799 197.068 171.096C196.476 171.426 195.804 171.584 195.127 171.551C194.45 171.586 193.777 171.428 193.186 171.096C192.711 170.802 192.327 170.381 192.08 169.88C191.815 169.341 191.648 168.758 191.588 168.16C191.514 167.503 191.477 166.843 191.478 166.182ZM198.813 141.649C198.854 142.149 198.789 142.652 198.624 143.126C198.459 143.6 198.197 144.034 197.854 144.401C197.112 145.035 196.151 145.357 195.176 145.297C194.197 145.358 193.232 145.037 192.485 144.401C192.143 144.034 191.88 143.6 191.715 143.126C191.55 142.652 191.486 142.149 191.527 141.649C191.48 141.144 191.542 140.636 191.707 140.157C191.872 139.678 192.137 139.24 192.485 138.872C193.243 138.258 194.203 137.952 195.176 138.012C196.166 137.933 197.149 138.241 197.916 138.872C198.245 139.25 198.495 139.691 198.649 140.169C198.803 140.646 198.859 141.149 198.813 141.649Z" fill="#80D6FF"/>
<path d="M206.953 147.595H216.438C216.928 147.598 217.417 147.639 217.9 147.718C218.403 147.79 218.892 147.94 219.35 148.16C219.787 148.368 220.167 148.68 220.456 149.069C220.764 149.506 220.92 150.033 220.898 150.568C220.897 150.843 220.852 151.117 220.763 151.379C220.677 151.66 220.57 151.935 220.444 152.202C220.312 152.488 220.173 152.767 220.026 153.037C219.878 153.307 219.739 153.569 219.608 153.823L211.266 165.47H216.537C217.086 165.469 217.636 165.498 218.183 165.556C218.679 165.595 219.162 165.728 219.608 165.949C220.02 166.155 220.368 166.469 220.616 166.858C220.893 167.352 221.025 167.914 220.996 168.479C221.023 169.045 220.891 169.606 220.616 170.101C220.369 170.496 220.021 170.819 219.608 171.035C219.161 171.256 218.679 171.398 218.183 171.452C217.637 171.518 217.087 171.551 216.537 171.551H207.101C206.596 171.549 206.091 171.516 205.59 171.452C205.085 171.392 204.592 171.256 204.128 171.047C203.689 170.852 203.308 170.547 203.022 170.163C202.716 169.711 202.565 169.172 202.592 168.627C202.598 168.029 202.741 167.441 203.01 166.907C203.275 166.356 203.583 165.826 203.931 165.322L212.224 153.627H206.953C206.397 153.627 205.852 153.602 205.319 153.553C204.824 153.504 204.341 153.367 203.894 153.148C203.482 152.948 203.133 152.637 202.887 152.251C202.6 151.774 202.463 151.222 202.494 150.666C202.464 150.095 202.601 149.527 202.887 149.032C203.132 148.639 203.481 148.32 203.894 148.111C204.342 147.891 204.824 147.75 205.319 147.693C205.862 147.627 206.407 147.594 206.953 147.595Z" fill="#80D6FF"/>
<path d="M118.56 0.551137H118.602L118.644 0.544068C119.571 0.386546 120.376 0.665238 121.143 1.17438C121.809 1.61608 122.409 2.20318 123.014 2.7966C123.122 2.90221 123.23 3.00801 123.339 3.11323C131.241 11.0572 139.163 18.9629 147.085 26.8679C151.045 30.8199 155.005 34.7718 158.962 38.7281L158.974 38.7397L158.986 38.7505C159.81 39.4723 160.508 40.4837 160.802 41.5299C161.092 42.562 160.987 43.5977 160.264 44.4694C158.323 46.7547 156.191 48.8189 154.041 50.9013C152.793 52.1096 151.539 53.324 150.312 54.5913L149.973 54.9411L150.314 55.289C153.77 58.8166 157.265 62.295 160.757 65.7705L161.34 66.3502C165.026 70.0196 168.708 73.6889 172.339 77.4177L172.342 77.4208C173.084 78.1691 173.5 79.1799 173.5 80.2334C173.5 81.2868 173.084 82.2976 172.342 83.0459L172.342 83.0462C168.016 87.4171 163.669 91.7549 159.318 96.0954C155.449 99.9554 151.578 103.817 147.719 107.707L147.697 107.729L147.679 107.753C147.159 108.422 146.461 108.932 145.665 109.224C144.896 109.505 144.066 109.573 143.263 109.42C141.579 108.358 140.001 107.137 138.549 105.774L138.532 105.758L138.513 105.744C133.817 102.102 128.194 99.8492 122.282 99.2417C116.371 98.6342 110.407 99.6961 105.068 102.307L105.059 102.311L105.05 102.316C101.708 104.125 98.6008 106.336 95.7974 108.9C94.8911 109.435 93.8155 109.607 92.7863 109.382C91.7415 109.154 90.8244 108.533 90.2245 107.648L90.1976 107.608L90.1637 107.574C88.1271 105.544 86.0923 103.519 84.06 101.497C77.9869 95.4537 71.9371 89.4338 65.9357 83.3522L65.9182 83.3344L65.8989 83.3184C65.494 82.9829 65.1619 82.5684 64.9228 82.1002C64.6837 81.6321 64.5426 81.12 64.5083 80.5955C64.4739 80.0709 64.5469 79.5449 64.7229 79.0495C64.8983 78.5558 65.1722 78.1028 65.5281 77.7182C68.5863 74.5596 71.7495 71.4287 74.9258 68.285C79.2397 64.0152 83.5776 59.7216 87.7091 55.3024L88.0336 54.9553L87.7035 54.6136C86.2664 53.1255 84.796 51.6763 83.3309 50.2323C83.2329 50.1357 83.135 50.0392 83.037 49.9426C81.4732 48.401 79.9176 46.862 78.4066 45.2753L78.3915 45.2595L78.3752 45.2451C77.9638 44.8824 77.6344 44.4364 77.4087 43.9366C77.1831 43.4368 77.0664 42.8948 77.0664 42.3465C77.0664 41.7982 77.1831 41.2562 77.4087 40.7564C77.6344 40.2566 77.9638 39.8106 78.3752 39.4479L78.3865 39.4379L78.3972 39.4273C90.6052 27.2805 102.791 15.1118 114.956 2.92132C115.16 2.73284 115.366 2.52842 115.568 2.32866C115.651 2.24588 115.734 2.1639 115.815 2.08418C116.103 1.80295 116.386 1.53749 116.68 1.30662C117.267 0.846244 117.864 0.551137 118.56 0.551137ZM87.1638 42.1251L86.7996 42.4917L87.1781 42.8436C89.3379 44.8518 91.3272 46.9041 93.3688 49.0103L93.4027 49.0453L93.7562 49.41L94.1153 49.0509C95.5026 47.664 96.875 46.2787 98.2416 44.8994C101.183 41.9308 104.097 38.9893 107.075 36.1163C109.292 34.0013 112.032 32.5136 115.014 31.8055C117.997 31.0974 121.114 31.1946 124.047 32.0873L124.046 32.0874L124.054 32.0896C129.019 33.5133 132.594 37.437 136.086 41.2703C136.394 41.608 136.701 41.945 137.008 42.2796V42.539C136.58 42.9928 136.158 43.4865 135.739 43.9766L135.737 43.9795C135.269 44.5264 134.804 45.0705 134.32 45.5775C133.411 46.5289 132.475 47.3035 131.421 47.683C130.262 46.8025 129.252 45.7223 128.21 44.6077C127.786 44.1537 127.356 43.6939 126.909 43.2396C125.329 41.6355 123.566 40.1489 121.189 39.5692L121.189 39.5691L121.182 39.5675C119.486 39.1805 117.717 39.2634 116.065 39.8072C114.419 40.349 112.952 41.3278 111.819 42.6389C99.3807 55.0745 86.9566 67.5101 74.5471 79.9457L74.1967 80.2968L74.5451 80.65C77.8947 84.0452 81.284 87.4307 84.6731 90.8159C87.637 93.7764 90.6007 96.7367 93.5374 99.7032L93.8511 100.02L94.2017 99.7445C101.272 94.1889 110.004 91.1687 118.997 91.1687C127.989 91.1687 136.721 94.1889 143.792 99.7445L144.141 100.019L144.454 99.7048L163.468 80.674L163.822 80.3198L163.467 79.9664C161.175 77.6829 158.888 75.3924 156.599 73.1009C152.592 69.0889 148.583 65.0737 144.539 61.0867L144.186 60.7381L143.834 61.0891C142.438 62.4857 141.043 63.8978 139.645 65.3136C136.665 68.3305 133.669 71.3643 130.598 74.3009C128.019 76.6022 124.816 78.0899 121.394 78.5766C117.968 79.0636 114.476 78.5266 111.355 77.0331C109.183 75.9788 107.354 74.3895 105.601 72.627C104.955 71.9763 104.311 71.2934 103.663 70.6067C102.706 69.591 101.741 68.5673 100.747 67.6278C102.681 65.6941 104.52 63.8583 106.418 61.9953C107.197 62.7041 107.945 63.5022 108.705 64.3313C108.829 64.4659 108.952 64.6014 109.077 64.7374C109.824 65.5552 110.588 66.3917 111.391 67.1659C113.267 68.9746 115.419 70.5103 118.267 70.8005C122.491 71.2663 125.77 68.2086 128.222 65.5195C135.728 57.9716 143.256 50.4455 150.806 42.9412L151.151 42.5974L150.816 42.243C144.505 35.5696 137.978 29.0959 131.465 22.6365C127.433 18.6377 123.407 14.6444 119.44 10.6126L119.089 10.255L118.732 10.6079C108.195 21.0409 97.672 31.5466 87.1638 42.1251Z" fill="url(#paint0_linear_352_70)" stroke="#BFEAFF"/>
<defs>
<linearGradient id="paint0_linear_352_70" x1="64" y1="55.11" x2="174" y2="55.11" gradientUnits="userSpaceOnUse">
<stop stop-color="#0079B2"/>
<stop offset="0.49" stop-color="#80D6FF"/>
<stop offset="0.99" stop-color="#BFEAFF"/>
</linearGradient>
</defs>
</svg>
