<svg width="26" height="26" viewBox="0 0 26 26" fill="none" xmlns="http://www.w3.org/2000/svg">
<path d="M10.6 15.4H13M13 15.4H15.4M13 15.4V17.8M13 15.4V13M25 12.7576C25 9.5992 25 8.0188 24.076 6.9928C23.9912 6.89812 23.9015 6.80799 23.8072 6.7228C22.7812 5.8 21.2008 5.8 18.0424 5.8H17.5936C16.21 5.8 15.5176 5.8 14.872 5.6164C14.5177 5.51513 14.1763 5.37339 13.8544 5.194C13.2688 4.8688 12.7792 4.378 11.8 3.4L11.14 2.74C10.8112 2.4112 10.648 2.248 10.4752 2.104C9.732 1.48797 8.82032 1.11033 7.8592 1.0204C7.636 1 7.4032 1 6.94 1C5.8804 1 5.3512 1 4.9096 1.084C3.96141 1.26307 3.0892 1.72376 2.40677 2.40598C1.72434 3.0882 1.26337 3.96026 1.084 4.9084C1 5.3512 1 5.8816 1 6.94M24.9892 17.8C24.946 20.776 24.7252 22.462 23.5936 23.5936C22.1884 25 19.9252 25 15.4 25H10.6C6.0748 25 3.8116 25 2.4064 23.5936C1.0012 22.1872 1 19.9252 1 15.4V11.8" stroke="white" stroke-width="1.5" stroke-linecap="round"/>
</svg>
