<svg width="35" height="42" viewBox="0 0 35 42" fill="none" xmlns="http://www.w3.org/2000/svg">
<path d="M2 19.2858V28.7723C2 34.6545 2 37.5976 3.26411 38.8819C3.86689 39.4956 4.62811 39.8813 5.43928 39.9839C7.13911 40.1986 9.12483 38.2607 13.0946 34.3866C14.8512 32.6748 15.7278 31.8179 16.7422 31.5937C17.2417 31.4797 17.7583 31.4797 18.2578 31.5937C19.2739 31.8179 20.1505 32.6748 21.9054 34.3866C25.8752 38.2607 27.8609 40.1986 29.5607 39.982C30.3702 39.8813 31.1331 39.4956 31.7359 38.8819C33 37.5976 33 34.6564 33 28.7723V19.2839C33 11.1369 33 7.06338 30.7301 4.53074C28.4602 2 24.8057 2 17.5 2C10.1926 2 6.53978 2 4.26989 4.53074C2.88006 6.0811 2.341 8.21285 2.13261 11.4998M22.6667 9.59982H12.3333" stroke="white" stroke-width="2.8125" stroke-linecap="round"/>
</svg>
