<svg width="18" height="22" viewBox="0 0 18 22" fill="none" xmlns="http://www.w3.org/2000/svg">
<path d="M1 10.0978V15.0907C1 18.1866 1 19.7356 1.65244 20.4115C1.96356 20.7345 2.35644 20.9375 2.77511 20.9915C3.65244 21.1045 4.67733 20.0846 6.72622 18.0456C7.63289 17.1446 8.08533 16.6936 8.60889 16.5756C8.86667 16.5156 9.13333 16.5156 9.39111 16.5756C9.91556 16.6936 10.368 17.1446 11.2738 18.0456C13.3227 20.0846 14.3476 21.1045 15.2249 20.9905C15.6427 20.9375 16.0364 20.7345 16.3476 20.4115C17 19.7356 17 18.1876 17 15.0907V10.0968C17 5.80889 17 3.66494 15.8284 2.33197C14.6569 0.999 12.7707 1 9 1C5.22933 1 3.34311 1 2.17156 2.33197C1.45422 3.14795 1.176 4.26992 1.06844 5.99988M11.6667 4.99991H6.33333" stroke="#0079B2" stroke-width="1.5" stroke-linecap="round"/>
</svg>
