<svg width="16" height="20" viewBox="0 0 16 20" fill="none" xmlns="http://www.w3.org/2000/svg">
<path opacity="0.5" d="M16 9.098V14.091C16 17.187 16 18.736 15.3476 19.412C15.0364 19.735 14.6436 19.938 14.2249 19.992C13.3476 20.105 12.3227 19.085 10.2738 17.046C9.36711 16.145 8.91467 15.694 8.39111 15.576C8.13303 15.5167 7.86697 15.5167 7.60889 15.576C7.08444 15.694 6.632 16.145 5.72622 17.046C3.67733 19.085 2.65244 20.105 1.77511 19.991C1.3558 19.9367 0.962658 19.734 0.652444 19.412C-5.29819e-08 18.736 0 17.188 0 14.091V9.097C0 4.81 -1.05964e-07 2.666 1.17156 1.333C2.34311 0 4.22933 0 8 0C11.7707 0 13.6569 0 14.8284 1.332C16 2.664 16 4.81 16 9.098Z" fill="#0079B2"/>
<path d="M5.33329 3.25C5.15648 3.25 4.98691 3.32902 4.86189 3.46967C4.73686 3.61032 4.66663 3.80109 4.66663 4C4.66663 4.19891 4.73686 4.38968 4.86189 4.53033C4.98691 4.67098 5.15648 4.75 5.33329 4.75H10.6666C10.8434 4.75 11.013 4.67098 11.138 4.53033C11.2631 4.38968 11.3333 4.19891 11.3333 4C11.3333 3.80109 11.2631 3.61032 11.138 3.46967C11.013 3.32902 10.8434 3.25 10.6666 3.25H5.33329Z" fill="#0079B2"/>
</svg>
