<svg width="23" height="29" viewBox="0 0 23 29" fill="none" xmlns="http://www.w3.org/2000/svg">
<path d="M1 13.282V20.0224C1 24.2019 1 26.293 1.85633 27.2056C2.26467 27.6416 2.78033 27.9157 3.32983 27.9886C4.48133 28.1411 5.8265 26.7641 8.51567 24.0116C9.70567 22.7952 10.2995 22.1864 10.9867 22.0271C11.325 21.9461 11.675 21.9461 12.0133 22.0271C12.7017 22.1864 13.2955 22.7952 14.4843 24.0116C17.1735 26.7641 18.5187 28.1411 19.6702 27.9872C20.2185 27.9157 20.7353 27.6416 21.1437 27.2056C22 26.293 22 24.2033 22 20.0224V13.2807C22 7.492 22 4.59767 20.4623 2.79816C18.9247 0.99865 16.449 1 11.5 1C6.551 1 4.07533 1 2.53767 2.79816C1.59617 3.89973 1.231 5.4144 1.08983 7.74984M15 6.39987H8" stroke="#0079B2" stroke-width="1.8" stroke-linecap="round"/>
</svg>
