<svg width="11" height="10" viewBox="0 0 11 10" fill="none" xmlns="http://www.w3.org/2000/svg">
<path d="M4.31226 5.33485L4.66581 4.98129L4.31226 4.62774L0.600171 0.915648C0.558781 0.868864 0.536351 0.808201 0.537455 0.74559C0.538598 0.680822 0.564836 0.619027 0.61064 0.573223C0.656444 0.527419 0.718239 0.501182 0.783006 0.500039C0.845618 0.498934 0.906281 0.521365 0.953065 0.562755L4.66515 4.27484L5.01871 4.6284L5.37226 4.27484L9.08435 0.562753C9.13114 0.521364 9.1918 0.498934 9.25441 0.500039C9.31918 0.501182 9.38097 0.527419 9.42678 0.573223C9.47258 0.619028 9.49882 0.680824 9.49996 0.74559C9.50107 0.808199 9.47864 0.868861 9.43725 0.915646L5.72516 4.62774L5.3716 4.98129L5.72516 5.33485L9.44515 9.05485L9.45139 9.06108L9.45785 9.0671C9.48241 9.08999 9.50211 9.11759 9.51577 9.14825C9.52944 9.17892 9.53679 9.21202 9.53738 9.24559C9.53797 9.27916 9.5318 9.3125 9.51922 9.34363C9.50665 9.37476 9.48793 9.40304 9.46419 9.42678C9.44045 9.45052 9.41217 9.46923 9.38105 9.4818C9.34992 9.49438 9.31657 9.50055 9.28301 9.49996C9.24944 9.49937 9.21633 9.49202 9.18567 9.47836C9.155 9.46469 9.1274 9.44499 9.10451 9.42043L9.0985 9.41398L9.09226 9.40774L5.37226 5.68774L5.01871 5.33419L4.66515 5.68774L0.945155 9.40774L0.938917 9.41398L0.932903 9.42043C0.910015 9.44499 0.882414 9.46469 0.851749 9.47836C0.821082 9.49202 0.787977 9.49937 0.75441 9.49996C0.720843 9.50055 0.6875 9.49438 0.65637 9.4818C0.625242 9.46923 0.596964 9.45052 0.573223 9.42678C0.549483 9.40304 0.530768 9.37476 0.518195 9.34363C0.505622 9.3125 0.499447 9.27916 0.500039 9.24559C0.500631 9.21202 0.507979 9.17892 0.521642 9.14825C0.535306 9.11759 0.555007 9.08998 0.579569 9.0671L0.586023 9.06108L0.592261 9.05485L4.31226 5.33485Z" fill="#0079B2" stroke="#0079B2"/>
</svg>
