<svg width="20" height="22" viewBox="0 0 20 22" fill="none" xmlns="http://www.w3.org/2000/svg">
<path d="M8.5 13H15M5 13H5.5M5 9.5H5.5M5 16.5H5.5M8.5 9.5H15M8.5 16.5H15" stroke="#0079B2" stroke-width="1.5" stroke-linecap="round"/>
<path d="M6 2.5C6 2.10218 6.15804 1.72064 6.43934 1.43934C6.72064 1.15804 7.10218 1 7.5 1H12.5C12.8978 1 13.2794 1.15804 13.5607 1.43934C13.842 1.72064 14 2.10218 14 2.5V3.5C14 3.89782 13.842 4.27936 13.5607 4.56066C13.2794 4.84196 12.8978 5 12.5 5H7.5C7.10218 5 6.72064 4.84196 6.43934 4.56066C6.15804 4.27936 6 3.89782 6 3.5V2.5Z" stroke="#0079B2" stroke-width="1.5"/>
<path d="M19 15C19 17.829 19 19.243 18.121 20.122C17.243 21 15.828 21 13 21H7C4.172 21 2.757 21 1.879 20.122C1 19.242 1 17.829 1 15V12M14 3.002C16.175 3.014 17.353 3.111 18.121 3.879C19 4.758 19 6.172 19 9V11M6 3.002C3.825 3.014 2.647 3.111 1.879 3.879C1.111 4.647 1.014 5.825 1.002 8" stroke="#0079B2" stroke-width="1.5" stroke-linecap="round"/>
</svg>
