<svg width="18" height="16" viewBox="0 0 18 16" fill="none" xmlns="http://www.w3.org/2000/svg">
<path d="M5.00049 4.99951L7.354 6.39146C8.72594 7.20262 9.27392 7.20262 10.6467 6.39146L13.0002 4.99951" stroke="#0079B2" stroke-width="1.5" stroke-linecap="round" stroke-linejoin="round"/>
<path d="M1.01343 8.98016C1.06543 11.4321 1.09183 12.6584 1.99659 13.5664C2.90136 14.4751 4.16051 14.5063 6.67961 14.5695C8.23155 14.6095 9.76908 14.6095 11.321 14.5695C13.8401 14.5063 15.0993 14.4751 16.004 13.5664C16.9088 12.6584 16.9352 11.4321 16.988 8.98016C17.004 8.19139 17.004 7.40742 16.988 6.61866C16.9352 4.16675 16.9088 2.9404 16.004 2.03244C15.0993 1.12367 13.8401 1.09247 11.321 1.02928C9.77413 0.990241 8.2265 0.990241 6.67961 1.02928C4.16051 1.09247 2.90136 1.12367 1.99659 2.03244C1.09183 2.9404 1.06543 4.16675 1.01263 6.61866C0.99579 7.40573 0.99659 8.19308 1.01343 8.98016Z" stroke="#0079B2" stroke-width="1.5" stroke-linecap="round" stroke-linejoin="round"/>
</svg>
