<svg width="58" height="58" viewBox="0 0 58 58" fill="none" xmlns="http://www.w3.org/2000/svg">
<path d="M39.4 23.8C42.2719 23.8 44.6 21.4719 44.6 18.6C44.6 15.7281 42.2719 13.4 39.4 13.4C36.5281 13.4 34.2 15.7281 34.2 18.6C34.2 21.4719 36.5281 23.8 39.4 23.8Z" stroke="#0079B2" stroke-width="4.5"/>
<path d="M10.8 32.3982L12.906 30.4404C14.0627 29.3655 15.5977 28.7918 17.1759 28.8444C18.7541 28.897 20.2474 29.5717 21.33 30.7212L28.2122 38.0272C29.6136 39.5144 31.9042 39.7146 33.5396 38.4952C34.6806 37.6436 36.0863 37.2236 37.5075 37.3097C38.9287 37.3959 40.2734 37.9826 41.3032 38.9658L47.2 44.6" stroke="#0079B2" stroke-width="4.5" stroke-linecap="round"/>
<path d="M55 29C55 41.2564 55 47.3846 51.191 51.191C47.3872 55 41.2564 55 29 55C16.7436 55 10.6154 55 6.8064 51.191C3 47.3872 3 41.2564 3 29C3 16.7436 3 10.6154 6.8064 6.8064C10.618 3 16.7436 3 29 3C41.2564 3 47.3846 3 51.191 6.8064C53.7234 9.3388 54.571 12.8982 54.857 18.6" stroke="#0079B2" stroke-width="4.5" stroke-linecap="round"/>
</svg>
