<svg width="26" height="26" viewBox="0 0 26 26" fill="none" xmlns="http://www.w3.org/2000/svg">
<path d="M9.13398 20.2H16.4564M1.03539 14.1496L1.37588 16.474C1.97022 20.5396 2.268 22.5712 3.70197 23.7856C5.13594 25 7.2387 25 11.4454 25H14.145C18.3517 25 20.4544 25 21.8884 23.7856C23.3224 22.5712 23.6202 20.5396 24.2145 16.474L24.555 14.1496C25.0187 10.9852 25.2506 9.4024 24.5904 8.05C23.9314 6.6976 22.5267 5.8744 19.7185 4.2304L18.0283 3.2404C15.4801 1.7464 14.2035 1 12.7952 1C11.3868 1 10.1115 1.7464 7.5621 3.2404L5.87185 4.2304C3.06492 5.8744 1.66024 6.6976 0.999999 8.05" stroke="white" stroke-width="1.5" stroke-linecap="round"/>
</svg>
