<svg width="18" height="18" viewBox="0 0 18 18" fill="none" xmlns="http://www.w3.org/2000/svg">
<path d="M4.19994 7.40018V5.80021C4.19994 5.52821 4.22234 5.26022 4.26634 5.00022M13.7998 7.40018V5.80021C13.7998 4.82522 13.503 3.87333 12.9487 3.07122C12.3944 2.2691 11.609 1.6548 10.697 1.31006C9.78501 0.96532 8.78964 0.906492 7.84337 1.1414C6.8971 1.37632 6.04481 1.89383 5.39992 2.62507M8.19987 17H5.79991C3.53755 17 2.40557 17 1.70319 16.2968C1 15.5944 1 14.4624 1 12.2001C1 9.93773 1 8.80575 1.70319 8.10337C2.40557 7.40018 3.53755 7.40018 5.79991 7.40018H12.1998C14.4621 7.40018 15.5941 7.40018 16.2965 8.10337C16.9997 8.80575 16.9997 9.93773 16.9997 12.2001C16.9997 14.4624 16.9997 15.5944 16.2965 16.2968C15.5941 17 14.4621 17 12.1998 17H11.3998" stroke="#0079B2" stroke-width="1.5" stroke-linecap="round"/>
</svg>
