<svg width="20" height="20" viewBox="0 0 20 20" fill="none" xmlns="http://www.w3.org/2000/svg">
<path d="M9.75 5.75076V9.75076L12.25 12.2508" stroke="#0079B2" stroke-width="1.5" stroke-linecap="round" stroke-linejoin="round"/>
<path d="M2.088 4.62176L1.338 4.62476C1.33879 4.82246 1.41761 5.01185 1.55731 5.15174C1.69701 5.29163 1.8863 5.3707 2.084 5.37176L2.088 4.62176ZM4.63 5.38376C4.72849 5.38422 4.82611 5.36527 4.91728 5.328C5.00845 5.29074 5.09139 5.23588 5.16136 5.16656C5.23132 5.09724 5.28695 5.01482 5.32507 4.924C5.36319 4.83318 5.38304 4.73575 5.3835 4.63726C5.38396 4.53876 5.36502 4.44115 5.32775 4.34998C5.29048 4.25881 5.23562 4.17587 5.16631 4.1059C5.09699 4.03593 5.01456 3.9803 4.92375 3.94219C4.83293 3.90407 4.73549 3.88422 4.637 3.88376L4.63 5.38376ZM2.825 2.07176C2.82394 1.87284 2.7439 1.6825 2.6025 1.5426C2.4611 1.40269 2.26991 1.32469 2.071 1.32576C1.87209 1.32682 1.68174 1.40685 1.54184 1.54825C1.40194 1.68966 1.32394 1.88084 1.325 2.07976L2.825 2.07176ZM1.5 9.75076C1.5 9.55184 1.42098 9.36108 1.28033 9.22043C1.13968 9.07977 0.948912 9.00076 0.75 9.00076C0.551088 9.00076 0.360322 9.07977 0.21967 9.22043C0.0790175 9.36108 0 9.55184 0 9.75076H1.5ZM14.625 18.1958C14.7139 18.1484 14.7923 18.0837 14.8556 18.0054C14.9189 17.9272 14.9658 17.8369 14.9935 17.7401C15.0212 17.6434 15.0292 17.542 15.0168 17.4421C15.0045 17.3421 14.9722 17.2457 14.9219 17.1585C14.8715 17.0714 14.8041 16.9952 14.7237 16.9347C14.6433 16.8741 14.5515 16.8303 14.4538 16.806C14.3561 16.7817 14.2545 16.7773 14.1551 16.793C14.0556 16.8088 13.9604 16.8444 13.875 16.8978L14.625 18.1958ZM16.897 13.8758C16.8436 13.9611 16.808 14.0564 16.7923 14.1558C16.7765 14.2552 16.7809 14.3568 16.8053 14.4545C16.8296 14.5522 16.8733 14.644 16.9339 14.7244C16.9945 14.8049 17.0706 14.8723 17.1578 14.9226C17.245 14.973 17.3414 15.0053 17.4413 15.0176C17.5412 15.0299 17.6426 15.022 17.7394 14.9943C17.8362 14.9666 17.9264 14.9197 18.0047 14.8564C18.083 14.793 18.1477 14.7146 18.195 14.6258L16.897 13.8758ZM2.89 2.82076C2.74864 2.96079 2.6687 3.15124 2.66776 3.35022C2.66682 3.5492 2.74497 3.7404 2.885 3.88176C3.02503 4.02312 3.21549 4.10306 3.41446 4.104C3.61344 4.10493 3.80464 4.02679 3.946 3.88676L2.89 2.82076ZM16.612 2.88776C12.792 -0.932244 6.619 -0.970245 2.824 2.82476L3.884 3.88376C7.084 0.684756 12.307 0.703756 15.552 3.94876L16.612 2.88776ZM2.824 2.82476L1.558 4.09076L2.618 5.15076L3.885 3.88576L2.824 2.82476ZM2.084 5.37176L4.63 5.38376L4.637 3.88376L2.092 3.87176L2.084 5.37176ZM2.838 4.61776L2.825 2.07176L1.325 2.07976L1.338 4.62476L2.838 4.61776ZM9.75 1.50076C11.938 1.50076 14.0365 2.36995 15.5836 3.91712C17.1308 5.4643 18 7.56272 18 9.75076H19.5C19.5 7.16489 18.4728 4.68494 16.6443 2.85646C14.8158 1.02798 12.3359 0.000755593 9.75 0.000755593V1.50076ZM9.75 18.0008C7.56196 18.0008 5.46354 17.1316 3.91637 15.5844C2.36919 14.0372 1.5 11.9388 1.5 9.75076H0C0 12.3366 1.02723 14.8166 2.85571 16.645C4.68419 18.4735 7.16414 19.5008 9.75 19.5008V18.0008ZM13.875 16.8978C12.6215 17.6232 11.1983 18.0038 9.75 18.0008V19.5008C11.525 19.5008 13.19 19.0258 14.625 18.1958L13.875 16.8978ZM18 9.75076C18.0031 11.199 17.6225 12.6223 16.897 13.8758L18.195 14.6258C19.0525 13.1444 19.5027 11.4624 19.5 9.75076H18ZM3.946 3.88676C5.48885 2.35481 7.57578 1.49752 9.75 1.50076V0.000755593C7.18034 -0.00266366 4.71388 1.01061 2.89 2.82076L3.946 3.88676Z" fill="#0079B2"/>
</svg>
