<svg width="34" height="30" viewBox="0 0 34 30" fill="none" xmlns="http://www.w3.org/2000/svg">
<path d="M20.9058 21.6035C20.956 21.7042 20.9853 21.814 20.992 21.9263C20.9986 22.0386 20.9825 22.1511 20.9445 22.257C20.9065 22.3629 20.8474 22.4601 20.7709 22.5425C20.6943 22.625 20.6019 22.6911 20.4991 22.7369L4.82932 29.7251C2.33769 30.8367 -0.24894 28.3684 0.986043 26.0551L6.2393 16.2153C6.64763 15.4503 6.64763 14.5486 6.2393 13.7853L0.986043 3.94545C-0.247274 1.63215 2.33602 -0.83782 4.82932 0.275498L10.7042 2.89546C11.4088 3.20977 11.9825 3.75875 12.3276 4.44877L20.9058 21.6035Z" fill="#0079B2"/>
<path opacity="0.5" d="M23.2224 20.6502C23.3184 20.8423 23.4848 20.9898 23.6869 21.0622C23.889 21.1345 24.1113 21.1261 24.3073 21.0386L32.3456 17.4553C34.5505 16.472 34.5505 13.5303 32.3456 12.547L17.5158 5.93377C17.3589 5.86383 17.1843 5.84404 17.0158 5.87712C16.8473 5.91019 16.6931 5.99452 16.5744 6.11856C16.4556 6.2426 16.3781 6.4003 16.3524 6.57009C16.3267 6.73988 16.3541 6.91346 16.4308 7.06709L23.2224 20.6502Z" fill="#0079B2"/>
</svg>
