<svg width="33" height="31" viewBox="0 0 33 31" fill="none" xmlns="http://www.w3.org/2000/svg">
<path d="M12.9648 22.2889C12.915 22.3884 12.8859 22.4971 12.8792 22.6082C12.8725 22.7193 12.8883 22.8306 12.9258 22.9355C12.9633 23.0403 13.0216 23.1365 13.0972 23.2182C13.1728 23.2999 13.2641 23.3654 13.3658 23.4109L28.8798 30.3297C31.3483 31.4303 33.9076 28.9865 32.6849 26.6962L27.4838 16.9542C27.0796 16.1968 27.0796 15.3041 27.4838 14.5483L32.6849 4.80629C33.9076 2.51598 31.3483 0.0705629 28.8798 1.17281L23.0649 3.76674C22.3667 4.07761 21.7981 4.62116 21.4561 5.30461L12.9648 22.2889Z" fill="#0079B2"/>
<path opacity="0.5" d="M10.6694 21.345C10.5744 21.5347 10.4099 21.6805 10.2102 21.7521C10.0104 21.8237 9.79077 21.8156 9.59685 21.7295L1.63853 18.1818C-0.546176 17.2083 -0.546176 14.2959 1.63853 13.3223L16.3193 6.77484C16.4745 6.70559 16.6474 6.686 16.8142 6.71874C16.9811 6.75149 17.1337 6.83498 17.2513 6.95779C17.3689 7.0806 17.4456 7.23673 17.4711 7.40483C17.4965 7.57293 17.4694 7.74478 17.3935 7.89689L10.6694 21.345Z" fill="#0079B2"/>
</svg>
