<svg width="22" height="16" viewBox="0 0 22 16" fill="none" xmlns="http://www.w3.org/2000/svg">
<path d="M1 12.25C0.801088 12.25 0.610322 12.329 0.46967 12.4697C0.329018 12.6103 0.25 12.8011 0.25 13C0.25 13.1989 0.329018 13.3897 0.46967 13.5303C0.610322 13.671 0.801088 13.75 1 13.75V12.25ZM4.603 13.75C4.80191 13.75 4.99268 13.671 5.13333 13.5303C5.27398 13.3897 5.353 13.1989 5.353 13C5.353 12.8011 5.27398 12.6103 5.13333 12.4697C4.99268 12.329 4.80191 12.25 4.603 12.25V13.75ZM21 3L21.53 3.53C21.6705 3.38938 21.7493 3.19875 21.7493 3C21.7493 2.80125 21.6705 2.61063 21.53 2.47L21 3ZM18.47 4.47C18.3375 4.61218 18.2654 4.80022 18.2688 4.99452C18.2723 5.18882 18.351 5.37421 18.4884 5.51162C18.6258 5.64904 18.8112 5.72775 19.0055 5.73118C19.1998 5.7346 19.3878 5.66248 19.53 5.53L18.47 4.47ZM19.53 0.470001C19.4613 0.396314 19.3785 0.337212 19.2865 0.29622C19.1945 0.255228 19.0952 0.233186 18.9945 0.231409C18.8938 0.229633 18.7938 0.248157 18.7004 0.285878C18.607 0.323599 18.5222 0.379744 18.451 0.450962C18.3797 0.522181 18.3236 0.607015 18.2859 0.700403C18.2482 0.793791 18.2296 0.893821 18.2314 0.994523C18.2332 1.09523 18.2552 1.19454 18.2962 1.28654C18.3372 1.37854 18.3963 1.46134 18.47 1.53L19.53 0.470001ZM7.72 11.728C7.64694 11.795 7.58788 11.8757 7.54622 11.9656C7.50456 12.0556 7.48113 12.1528 7.47729 12.2519C7.47345 12.3509 7.48928 12.4497 7.52385 12.5426C7.55842 12.6354 7.61105 12.7205 7.67871 12.7929C7.74636 12.8654 7.82769 12.9236 7.91801 12.9644C8.00832 13.0052 8.10582 13.0277 8.20488 13.0306C8.30393 13.0335 8.40258 13.0167 8.49512 12.9813C8.58765 12.9458 8.67224 12.8923 8.744 12.824L7.72 11.728ZM1 13.75H4.603V12.25H1V13.75ZM10.39 10.473L12.895 6.299L11.609 5.527L9.105 9.701L10.39 10.473ZM17.397 3.75H21V2.25H17.397V3.75ZM20.47 2.47L18.47 4.47L19.53 5.53L21.53 3.53L20.47 2.47ZM21.53 2.47L19.53 0.470001L18.47 1.53L20.47 3.53L21.53 2.47ZM12.895 6.299C13.329 5.575 13.629 5.079 13.901 4.71C14.164 4.355 14.369 4.167 14.59 4.042L13.851 2.737C13.384 3.001 13.031 3.364 12.696 3.817C12.37 4.257 12.028 4.828 11.609 5.527L12.895 6.299ZM17.397 2.25C16.582 2.25 15.917 2.25 15.372 2.302C14.81 2.357 14.318 2.472 13.851 2.737L14.59 4.042C14.81 3.917 15.077 3.838 15.517 3.795C15.973 3.751 16.553 3.75 17.397 3.75V2.25ZM9.105 9.701C8.428 10.829 8.085 11.387 7.72 11.728L8.744 12.824C9.301 12.304 9.763 11.518 10.39 10.473L9.105 9.701ZM1 2.25C0.801088 2.25 0.610322 2.32902 0.46967 2.46967C0.329018 2.61032 0.25 2.80109 0.25 3C0.25 3.19891 0.329018 3.38968 0.46967 3.53033C0.610322 3.67098 0.801088 3.75 1 3.75V2.25ZM21 13L21.53 13.53C21.6705 13.3894 21.7493 13.1988 21.7493 13C21.7493 12.8013 21.6705 12.6106 21.53 12.47L21 13ZM19.53 10.47C19.4613 10.3963 19.3785 10.3372 19.2865 10.2962C19.1945 10.2552 19.0952 10.2332 18.9945 10.2314C18.8938 10.2296 18.7938 10.2482 18.7004 10.2859C18.607 10.3236 18.5222 10.3797 18.451 10.451C18.3797 10.5222 18.3236 10.607 18.2859 10.7004C18.2482 10.7938 18.2296 10.8938 18.2314 10.9945C18.2332 11.0952 18.2552 11.1945 18.2962 11.2865C18.3372 11.3785 18.3963 11.4613 18.47 11.53L19.53 10.47ZM18.47 14.47C18.3963 14.5387 18.3372 14.6215 18.2962 14.7135C18.2552 14.8055 18.2332 14.9048 18.2314 15.0055C18.2296 15.1062 18.2482 15.2062 18.2859 15.2996C18.3236 15.393 18.3797 15.4778 18.451 15.549C18.5222 15.6203 18.607 15.6764 18.7004 15.7141C18.7938 15.7518 18.8938 15.7704 18.9945 15.7686C19.0952 15.7668 19.1945 15.7448 19.2865 15.7038C19.3785 15.6628 19.4613 15.6037 19.53 15.53L18.47 14.47ZM13.443 10.615C13.3945 10.5265 13.3287 10.4487 13.2494 10.3862C13.1701 10.3238 13.0791 10.278 12.9817 10.2515C12.8843 10.2251 12.7826 10.2186 12.6826 10.2324C12.5827 10.2462 12.4865 10.28 12.4 10.3319C12.3134 10.3837 12.2381 10.4525 12.1788 10.5341C12.1194 10.6157 12.0771 10.7084 12.0544 10.8067C12.0317 10.9051 12.0291 11.007 12.0468 11.1063C12.0644 11.2057 12.1019 11.3005 12.157 11.385L13.443 10.615ZM8.557 5.386C8.66039 5.55443 8.82607 5.67524 9.01805 5.72218C9.21002 5.76912 9.41276 5.73839 9.5822 5.63667C9.75164 5.53496 9.87409 5.37047 9.92292 5.17897C9.97176 4.98747 9.94304 4.78444 9.843 4.614L8.557 5.386ZM1 3.75H5.668V2.25H1V3.75ZM16.332 13.75H21V12.25H16.332V13.75ZM21.53 12.47L19.53 10.47L18.47 11.53L20.47 13.53L21.53 12.47ZM20.47 12.47L18.47 14.47L19.53 15.53L21.53 13.53L20.47 12.47ZM16.332 12.25C15.687 12.25 15.465 12.247 15.269 12.209L14.982 13.681C15.354 13.753 15.747 13.75 16.332 13.75V12.25ZM12.157 11.385C12.457 11.887 12.657 12.226 12.911 12.508L14.026 11.505C13.892 11.356 13.776 11.168 13.443 10.615L12.157 11.385ZM15.269 12.209C14.7892 12.1156 14.3529 11.8685 14.026 11.505L12.911 12.508C13.4556 13.1135 14.1826 13.5253 14.982 13.681L15.269 12.209ZM5.668 3.75C6.313 3.75 6.535 3.753 6.731 3.791L7.018 2.319C6.646 2.247 6.253 2.25 5.668 2.25V3.75ZM9.843 4.614C9.543 4.112 9.343 3.774 9.089 3.492L7.974 4.495C8.108 4.644 8.224 4.833 8.557 5.386L9.843 4.614ZM6.731 3.791C7.211 3.885 7.647 4.131 7.974 4.495L9.089 3.492C8.54436 2.88649 7.81739 2.47474 7.018 2.319L6.731 3.791Z" fill="#0079B2"/>
</svg>
