<svg width="16" height="19" viewBox="0 0 16 19" fill="none" xmlns="http://www.w3.org/2000/svg">
<path d="M10.3248 6.7277L10.0313 14.3641M5.96873 14.3641L5.67515 6.7277M14.1328 4.00406C14.4225 4.04818 14.7115 4.09513 15 4.14491M14.1328 4.00406L13.2267 15.7836C13.1897 16.2632 12.973 16.7111 12.62 17.0378C12.267 17.3646 11.8037 17.546 11.3227 17.5459H4.67733C4.19632 17.546 3.73299 17.3646 3.37998 17.0378C3.02698 16.7111 2.81032 16.2632 2.77333 15.7836L1.86715 4.00406M14.1328 4.00406C13.1536 3.85594 12.1693 3.74358 11.1818 3.66721M1.86715 4.00406C1.57754 4.04762 1.28848 4.09429 1 4.14406M1.86715 4.00406C2.84641 3.85594 3.83074 3.74358 4.81818 3.66721M11.1818 3.66721V2.89C11.1818 1.88879 10.4097 1.05388 9.40848 1.02249C8.46973 0.992504 7.53027 0.992504 6.59152 1.02249C5.5903 1.05388 4.81818 1.88964 4.81818 2.89V3.66721M11.1818 3.66721C9.06372 3.50464 6.93628 3.50464 4.81818 3.66721" stroke="white" stroke-linecap="round" stroke-linejoin="round"/>
</svg>
