<svg width="56" height="47" viewBox="0 0 56 47" fill="none" xmlns="http://www.w3.org/2000/svg">
<path d="M49.2483 8.42531C49.2483 8.42531 53 12.9478 53 23.5004C53 34.053 49.2483 38.5755 49.2483 38.5755M44.2461 15.9629C44.2461 15.9629 45.4966 18.2241 45.4966 23.5004C45.4966 28.7767 44.2461 31.038 44.2461 31.038M4.12551 14.9001C4.9237 13.4872 6.12744 12.3489 7.57956 11.6338C9.08024 10.9378 10.796 10.9378 14.2326 10.9378C15.5131 10.9378 16.1534 10.9378 16.7737 10.8323C17.3872 10.7279 17.9854 10.5473 18.5545 10.2946C19.1298 10.0409 19.665 9.68659 20.733 8.97806L21.2832 8.61626C27.6386 4.40276 30.82 2.29476 33.4912 3.21183C34.004 3.38771 34.4992 3.63896 34.9419 3.95302C37.2504 5.58113 37.4255 9.37253 37.7757 16.9528C37.8897 19.1337 37.9623 21.3167 37.9932 23.5004C37.9932 24.8371 37.9057 27.239 37.7757 30.0455C37.4255 37.6283 37.2504 41.4172 34.9419 43.0478C34.4955 43.3623 34.0071 43.6118 33.4912 43.789C30.8225 44.7036 27.6411 42.5981 21.2807 38.3846L20.7355 38.0228C19.6675 37.3142 19.1348 36.96 18.557 36.7037C17.9878 36.4519 17.3896 36.2721 16.7762 36.1685C16.1534 36.063 15.5131 36.063 14.2326 36.063C10.796 36.063 9.08024 36.063 7.57956 35.367C6.12744 34.652 4.9237 33.5137 4.12551 32.1008C3.34015 30.6385 3.25011 29.1209 3.06503 26.0833C3.03752 25.6335 3.01501 25.1888 3 24.7567" stroke="#0079B2" stroke-width="4.5" stroke-linecap="round"/>
</svg>
